<?xml version="1.0" standalone="yes"?>

<svg version="1.1" viewBox="0.0 0.0 514.4225721784777 212.0262467191601" fill="none" stroke="none" stroke-linecap="square" stroke-miterlimit="10" xmlns="http://www.w3.org/2000/svg" xmlns:xlink="http://www.w3.org/1999/xlink"><clipPath id="p.0"><path d="m0 0l514.42255 0l0 212.02625l-514.42255 0l0 -212.02625z" clip-rule="nonzero"></path></clipPath><g clip-path="url(#p.0)"><path fill="#000000" fill-opacity="0.0" d="m0 0l514.42255 0l0 212.02625l-514.42255 0z" fill-rule="nonzero"></path><path fill="#cfe2f3" d="m125.262245 15.990231l113.16535 0l0 65.102356l-113.16535 0z" fill-rule="nonzero"></path><path stroke="#000000" stroke-width="1.0" stroke-linejoin="round" stroke-linecap="butt" d="m125.262245 15.990231l113.16535 0l0 65.102356l-113.16535 0z" fill-rule="nonzero"></path><path fill="#000000" d="m148.13666 41.570786q2.25 0 3.765625 1.171875q1.53125 1.171875 1.828125 3.234375l-1.8125 0q-0.296875 -1.390625 -1.296875 -2.125q-1.0 -0.75 -2.5 -0.75q-2.15625 0 -3.375 1.515625q-1.21875 1.515625 -1.21875 3.96875q0 2.59375 1.1875 4.140625q1.203125 1.53125 3.421875 1.53125q1.65625 0 2.71875 -1.046875q1.0625 -1.046875 1.203125 -2.859375l1.796875 0q-0.296875 2.625 -1.828125 4.03125q-1.53125 1.40625 -4.03125 1.40625q-2.921875 0 -4.609375 -1.921875q-1.671875 -1.9375 -1.671875 -5.15625q0 -3.15625 1.734375 -5.140625q1.734375 -2.0 4.6875 -2.0zm11.691696 3.84375q2.234375 0 3.5 1.4375q1.265625 1.4375 1.265625 3.703125q0 2.296875 -1.296875 3.71875q-1.296875 1.421875 -3.46875 1.421875q-2.125 0 -3.453125 -1.390625q-1.3125 -1.40625 -1.3125 -3.75q0 -2.328125 1.28125 -3.734375q1.296875 -1.40625 3.484375 -1.40625zm-3.0625 5.140625q0 1.703125 0.859375 2.703125q0.875 1.0 2.203125 1.0q1.328125 0 2.1875 -1.0q0.875 -1.015625 0.875 -2.703125q0 -1.671875 -0.859375 -2.6875q-0.859375 -1.03125 -2.21875 -1.03125q-1.296875 0 -2.171875 1.015625q-0.875 1.0 -0.875 2.703125zm14.290894 -5.140625q1.78125 0 2.578125 0.90625q0.8125 0.90625 0.8125 2.59375l0 6.546875l-1.625 0l0 -6.703125q0 -0.84375 -0.53125 -1.375q-0.53125 -0.546875 -1.484375 -0.546875q-1.359375 0 -2.125 0.84375q-0.765625 0.828125 -0.765625 2.171875l0 5.609375l-1.609375 0l0 -9.828125l1.515625 0l0 1.5625l0.046875 0q0.53125 -0.921875 1.3125 -1.34375q0.78125 -0.4375 1.875 -0.4375zm7.860092 -2.71875l0 2.9375l1.96875 0l0 1.4375l-1.96875 0l0 6.140625q0 0.734375 0.484375 0.78125q0.5 0.046875 1.03125 0.046875l0.453125 0l0 1.421875l-1.34375 0q-1.328125 0 -1.78125 -0.46875q-0.453125 -0.484375 -0.453125 -1.59375l0 -6.328125l-1.671875 0l0 -1.4375l1.671875 0l0 -2.9375l1.609375 0zm8.531876 2.703125q0.046875 0 0.09375 0q0.046875 0 0.125 0.015625l0 1.703125q-1.8125 0 -2.6875 0.96875q-0.859375 0.96875 -0.859375 2.984375l0 4.390625l-1.625 0l0 -9.828125l1.53125 0l0 2.078125l0.03125 0q0.5625 -1.171875 1.390625 -1.734375q0.828125 -0.578125 2.0 -0.578125zm5.5564423 0.015625q2.234375 0 3.5 1.4375q1.265625 1.4375 1.265625 3.703125q0 2.296875 -1.296875 3.71875q-1.296875 1.421875 -3.46875 1.421875q-2.125 0 -3.453125 -1.390625q-1.3125153 -1.40625 -1.3125153 -3.75q0 -2.328125 1.2812653 -3.734375q1.296875 -1.40625 3.484375 -1.40625zm-3.0625 5.140625q0 1.703125 0.859375 2.703125q0.875 1.0 2.203125 1.0q1.328125 0 2.1875 -1.0q0.875 -1.015625 0.875 -2.703125q0 -1.671875 -0.859375 -2.6875q-0.859375 -1.03125 -2.21875 -1.03125q-1.296875 0 -2.171875 1.015625q-0.875 1.0 -0.875 2.703125zm11.244019 -8.65625l0 13.5625l-1.609375 0l0 -13.5625l1.609375 0zm4.144821 0l0 13.5625l-1.609375 0l0 -13.5625l1.609375 0zm6.519821 3.515625q2.109375 0 3.28125 1.53125q1.171875 1.515625 1.171875 3.890625l0 0.203125l-7.359375 0l0 0.109375q0 1.40625 0.8125 2.265625q0.828125 0.84375 2.25 0.84375q1.078125 0 1.703125 -0.5q0.640625 -0.5 0.84375 -1.421875l1.59375 0q-0.328125 1.640625 -1.4375 2.5q-1.09375 0.859375 -2.75 0.859375q-1.5625 0 -2.640625 -0.703125q-1.0625 -0.703125 -1.578125 -1.953125q-0.5 -1.25 -0.5 -2.546875q0 -2.171875 1.296875 -3.625q1.3125 -1.453125 3.3125 -1.453125zm-2.90625 4.1875l5.640625 0q-0.078125 -1.1875 -0.875 -1.96875q-0.78125 -0.796875 -1.96875 -0.796875q-1.109375 0 -1.90625 0.75q-0.78125 0.75 -0.890625 2.015625zm13.739197 -4.203125q0.046875 0 0.09375 0q0.046875 0 0.125 0.015625l0 1.703125q-1.8125 0 -2.6875 0.96875q-0.859375 0.96875 -0.859375 2.984375l0 4.390625l-1.625 0l0 -9.828125l1.53125 0l0 2.078125l0.03125 0q0.5625 -1.171875 1.390625 -1.734375q0.828125 -0.578125 2.0 -0.578125z" fill-rule="nonzero"></path><path fill="#cfe2f3" d="m287.38986 15.990231l113.165375 0l0 65.102356l-113.165375 0z" fill-rule="nonzero"></path><path stroke="#000000" stroke-width="1.0" stroke-linejoin="round" stroke-linecap="butt" d="m287.38986 15.990231l113.165375 0l0 65.102356l-113.165375 0z" fill-rule="nonzero"></path><path fill="#000000" d="m318.74197 41.570786q2.25 0 3.578125 1.09375q1.328125 1.09375 1.421875 3.203125l-1.71875 0q-0.15625 -1.390625 -1.0 -2.078125q-0.84375 -0.6875 -2.359375 -0.6875q-1.453125 0 -2.25 0.59375q-0.796875 0.59375 -0.796875 1.703125q0 0.796875 0.671875 1.3125q0.6875 0.515625 3.6875 1.109375q2.171875 0.453125 3.25 1.375q1.078125 0.90625 1.078125 2.546875q0 1.890625 -1.546875 2.96875q-1.546875 1.078125 -3.765625 1.078125q-2.453125 0 -4.015625 -1.234375q-1.5625 -1.234375 -1.578125 -3.5625l1.703125 0q0.03125 1.5625 1.109375 2.421875q1.09375 0.84375 2.84375 0.84375q1.640625 0 2.546875 -0.625q0.90625 -0.640625 0.90625 -1.84375q0 -0.953125 -0.828125 -1.53125q-0.828125 -0.59375 -3.0 -1.015625q-2.890625 -0.546875 -3.875 -1.40625q-0.984375 -0.875 -0.984375 -2.296875q0 -1.828125 1.375 -2.890625q1.390625 -1.078125 3.546875 -1.078125zm8.010162 4.0625l2.875 8.03125l0.03125 0l2.765625 -8.03125l1.71875 0l-4.1875 10.875q-0.65625 1.703125 -1.265625 2.296875q-0.609375 0.59375 -1.671875 0.59375q-0.296875 0 -0.578125 -0.046875q-0.28125 -0.03125 -0.546875 -0.125l0 -1.484375q0.234375 0.078125 0.46875 0.140625q0.234375 0.078125 0.46875 0.078125q0.984375 0 1.375 -0.984375q0.390625 -0.984375 0.625 -1.578125l-3.890625 -9.765625l1.8125 0zm11.84375 -0.21875q1.984375 0 2.9375 0.78125q0.96875 0.765625 1.0625 2.28125l-1.609375 0l0 -0.015625q-0.0625 -0.78125 -0.6875 -1.203125q-0.609375 -0.421875 -1.578125 -0.421875q-0.984375 0 -1.546875 0.328125q-0.5625 0.328125 -0.5625 0.921875q0 0.53125 0.5 0.875q0.5 0.34375 1.5 0.5625l1.515625 0.34375q1.4375 0.3125 2.171875 0.96875q0.75 0.65625 0.75 1.765625q0 1.4375 -1.125 2.265625q-1.125 0.828125 -3.0625 0.828125q-1.890625 0 -3.0 -0.84375q-1.09375 -0.84375 -1.171875 -2.484375l1.625 0q0.03125 0.90625 0.71875 1.40625q0.703125 0.484375 1.921875 0.484375q1.171875 0 1.765625 -0.359375q0.609375 -0.375 0.609375 -1.09375q0 -0.671875 -0.609375 -1.046875q-0.59375 -0.390625 -2.4375 -0.765625q-1.859375 -0.359375 -2.625 -1.015625q-0.75 -0.671875 -0.75 -1.765625q0 -1.296875 1.046875 -2.046875q1.046875 -0.75 2.640625 -0.75zm8.296875 -2.71875l0 2.9375l1.96875 0l0 1.4375l-1.96875 0l0 6.140625q0 0.734375 0.484375 0.78125q0.5 0.046875 1.03125 0.046875l0.453125 0l0 1.421875l-1.34375 0q-1.328125 0 -1.78125 -0.46875q-0.453125 -0.484375 -0.453125 -1.59375l0 -6.328125l-1.671875 0l0 -1.4375l1.671875 0l0 -2.9375l1.609375 0zm7.719391 2.71875q2.109375 0 3.28125 1.53125q1.171875 1.515625 1.171875 3.890625l0 0.203125l-7.359375 0l0 0.109375q0 1.40625 0.8125 2.265625q0.828125 0.84375 2.25 0.84375q1.078125 0 1.703125 -0.5q0.640625 -0.5 0.84375 -1.421875l1.59375 0q-0.328125 1.640625 -1.4375 2.5q-1.09375 0.859375 -2.75 0.859375q-1.5625 0 -2.640625 -0.703125q-1.0625 -0.703125 -1.578125 -1.953125q-0.5 -1.25 -0.5 -2.546875q0 -2.171875 1.296875 -3.625q1.3125 -1.453125 3.3125 -1.453125zm-2.90625 4.1875l5.640625 0q-0.078125 -1.1875 -0.875 -1.96875q-0.78125 -0.796875 -1.96875 -0.796875q-1.109375 0 -1.90625 0.75q-0.78125 0.75 -0.890625 2.015625zm13.582947 -4.1875q1.0625 0 1.75 0.4375q0.6875 0.4375 0.9375 1.234375q0.5 -0.796875 1.3125 -1.234375q0.8125 -0.4375 1.78125 -0.4375q1.65625 0 2.453125 0.75q0.8125 0.75 0.8125 2.03125l0 7.265625l-1.625 0l0 -6.515625q0 -1.0625 -0.453125 -1.578125q-0.4375 -0.53125 -1.453125 -0.53125q-1.203125 0 -1.875 0.703125q-0.671875 0.703125 -0.671875 1.75l0 6.171875l-1.625 0l0 -6.515625q0 -1.0625 -0.453125 -1.578125q-0.4375 -0.53125 -1.390625 -0.53125q-0.765625 0 -1.359375 0.375q-0.59375 0.359375 -0.9375 1.015625q-0.328125 0.640625 -0.328125 1.078125l0 6.15625l-1.609375 0l0 -9.828125l1.515625 0l0 1.453125l0.046875 0q0.546875 -0.84375 1.328125 -1.25q0.796875 -0.421875 1.84375 -0.421875z" fill-rule="nonzero"></path><path fill="#000000" fill-opacity="0.0" d="m238.4276 48.541412l48.976395 0" fill-rule="nonzero"></path><path stroke="#000000" stroke-width="3.0" stroke-linejoin="round" stroke-linecap="butt" d="m238.4276 48.54141l30.976364 0" fill-rule="evenodd"></path><path fill="#000000" stroke="#000000" stroke-width="3.0" stroke-linecap="butt" d="m269.40396 53.49661l13.614319 -4.9552l-13.614319 -4.9551964z" fill-rule="evenodd"></path><path fill="#000000" fill-opacity="0.0" d="m15.246501 48.919365l110.01575 -0.37795258" fill-rule="nonzero"></path><path stroke="#000000" stroke-width="3.0" stroke-linejoin="round" stroke-linecap="butt" d="m15.2465 48.919365l92.015854 -0.31611633" fill-rule="evenodd"></path><path fill="#000000" stroke="#000000" stroke-width="3.0" stroke-linecap="butt" d="m107.27938 53.558414l13.597191 -5.001938l-13.631233 -4.9083977z" fill-rule="evenodd"></path><path fill="#000000" fill-opacity="0.0" d="m13.325247 20.113152l105.32283 0l0 28.440945l-105.32283 0z" fill-rule="nonzero"></path><path fill="#000000" d="m53.097404 29.6319l0 9.28125l-1.234375 0l0 -9.28125l1.234375 0zm5.246048 2.40625q1.203125 0 1.75 0.625q0.5625 0.625 0.5625 1.78125l0 4.46875l-1.109375 0l0 -4.59375q0 -0.5625 -0.375 -0.9375q-0.359375 -0.375 -1.0 -0.375q-0.9375 0 -1.46875 0.578125q-0.515625 0.578125 -0.515625 1.484375l0 3.84375l-1.109375 0l0 -6.71875l1.046875 0l0 1.0625l0.015625 0q0.375 -0.625 0.90625 -0.921875q0.546875 -0.296875 1.296875 -0.296875zm7.4593506 0q1.453125 0 2.28125 1.0q0.828125 0.984375 0.828125 2.53125q0 1.5625 -0.828125 2.53125q-0.828125 0.96875 -2.25 0.96875q-0.625 0 -1.234375 -0.25q-0.59375 -0.265625 -0.9375 -0.796875l-0.03125 0l0 3.46875l-1.09375 0l0 -9.296875l1.09375 0l0 0.90625l0.03125 0q0.265625 -0.515625 0.828125 -0.78125q0.5625 -0.28125 1.3125 -0.28125zm-2.203125 3.515625q0 1.15625 0.5625 1.859375q0.5625 0.6875 1.5625 0.6875q0.953125 0 1.46875 -0.6875q0.53125 -0.6875 0.53125 -1.921875q0 -1.078125 -0.5625 -1.78125q-0.546875 -0.703125 -1.515625 -0.703125q-0.96875 0 -1.515625 0.71875q-0.53125 0.703125 -0.53125 1.828125zm7.9005585 -3.359375l0 4.578125q0 0.578125 0.359375 0.953125q0.375 0.375 1.015625 0.375q0.953125 0 1.46875 -0.578125q0.515625 -0.59375 0.515625 -1.484375l0 -3.84375l1.109375 0l0 6.71875l-1.046875 0l0 -1.0625l-0.03125 0q-0.359375 0.640625 -0.921875 0.9375q-0.546875 0.28125 -1.265625 0.28125q-1.171875 0 -1.75 -0.59375q-0.5625 -0.609375 -0.5625 -1.796875l0 -4.484375l1.109375 0zm7.8499756 -2.015625l0 2.015625l1.328125 0l0 0.96875l-1.328125 0l0 4.21875q0 0.5 0.328125 0.53125q0.328125 0.015625 0.6875 0.015625l0.3125 0l0 0.984375l-0.90625 0q-0.90625 0 -1.21875 -0.3125q-0.3125 -0.328125 -0.3125 -1.09375l0 -4.34375l-1.15625 0l0 -0.96875l1.15625 0l0 -2.015625l1.109375 0z" fill-rule="nonzero"></path><path fill="#cfe2f3" d="m211.5929 132.64049l113.165375 0l0 65.10237l-113.165375 0z" fill-rule="nonzero"></path><path stroke="#000000" stroke-width="1.0" stroke-linejoin="round" stroke-linecap="butt" d="m211.5929 132.64049l113.165375 0l0 65.10237l-113.165375 0z" fill-rule="nonzero"></path><path fill="#000000" d="m240.18938 158.22105q2.25 0 3.578125 1.09375q1.328125 1.09375 1.421875 3.203125l-1.71875 0q-0.15625 -1.390625 -1.0 -2.078125q-0.84375 -0.6875 -2.359375 -0.6875q-1.453125 0 -2.25 0.59375q-0.796875 0.59375 -0.796875 1.703125q0 0.796875 0.671875 1.3125q0.6875 0.515625 3.6875 1.109375q2.171875 0.453125 3.25 1.375q1.078125 0.90625 1.078125 2.546875q0 1.890625 -1.546875 2.96875q-1.546875 1.078125 -3.765625 1.078125q-2.453125 0 -4.015625 -1.234375q-1.5625 -1.234375 -1.578125 -3.5625l1.703125 0q0.03125 1.5625 1.109375 2.421875q1.09375 0.84375 2.84375 0.84375q1.640625 0 2.546875 -0.625q0.90625 -0.640625 0.90625 -1.84375q0 -0.953125 -0.828125 -1.53125q-0.828125 -0.59375 -3.0 -1.015625q-2.890625 -0.546875 -3.875 -1.40625q-0.984375 -0.875 -0.984375 -2.296875q0 -1.828125 1.375 -2.890625q1.390625 -1.078125 3.546875 -1.078125zm11.338303 3.84375q2.109375 0 3.28125 1.53125q1.171875 1.515625 1.171875 3.890625l0 0.203125l-7.359375 0l0 0.109375q0 1.40625 0.8125 2.265625q0.828125 0.84375 2.25 0.84375q1.078125 0 1.703125 -0.5q0.640625 -0.5 0.84375 -1.421875l1.59375 0q-0.328125 1.640625 -1.4375 2.5q-1.09375 0.859375 -2.75 0.859375q-1.5625 0 -2.640625 -0.703125q-1.0625 -0.703125 -1.578125 -1.953125q-0.5 -1.25 -0.5 -2.546875q0 -2.171875 1.296875 -3.625q1.3125 -1.453125 3.3125 -1.453125zm-2.90625 4.1875l5.640625 0q-0.078125 -1.1875 -0.875 -1.96875q-0.78125 -0.796875 -1.96875 -0.796875q-1.109375 0 -1.90625 0.75q-0.78125 0.75 -0.890625 2.015625zm13.598572 -4.1875q1.78125 0 2.578125 0.90625q0.8125 0.90625 0.8125 2.59375l0 6.546875l-1.625 0l0 -6.703125q0 -0.84375 -0.53125 -1.375q-0.53125 -0.546875 -1.484375 -0.546875q-1.359375 0 -2.125 0.84375q-0.765625 0.828125 -0.765625 2.171875l0 5.609375l-1.609375 0l0 -9.828125l1.515625 0l0 1.5625l0.046875 0q0.53125 -0.921875 1.3125 -1.34375q0.78125 -0.4375 1.875 -0.4375zm8.891327 0q1.984375 0 2.9375 0.78125q0.96875 0.765625 1.0625 2.28125l-1.609375 0l0 -0.015625q-0.0625 -0.78125 -0.6875 -1.203125q-0.609375 -0.421875 -1.578125 -0.421875q-0.984375 0 -1.546875 0.328125q-0.5625 0.328125 -0.5625 0.921875q0 0.53125 0.5 0.875q0.5 0.34375 1.5 0.5625l1.515625 0.34375q1.4375 0.3125 2.171875 0.96875q0.75 0.65625 0.75 1.765625q0 1.4375 -1.125 2.265625q-1.125 0.828125 -3.0625 0.828125q-1.890625 0 -3.0 -0.84375q-1.09375 -0.84375 -1.171875 -2.484375l1.625 0q0.03125 0.90625 0.71875 1.40625q0.703125 0.484375 1.921875 0.484375q1.171875 0 1.765625 -0.359375q0.609375 -0.375 0.609375 -1.09375q0 -0.671875 -0.609375 -1.046875q-0.59375 -0.390625 -2.4375 -0.765625q-1.859375 -0.359375 -2.625 -1.015625q-0.75 -0.671875 -0.75 -1.765625q0 -1.296875 1.046875 -2.046875q1.046875 -0.75 2.640625 -0.75zm10.296875 0q2.234375 0 3.5 1.4375q1.265625 1.4375 1.265625 3.703125q0 2.296875 -1.296875 3.71875q-1.296875 1.421875 -3.46875 1.421875q-2.125 0 -3.453125 -1.390625q-1.3125 -1.40625 -1.3125 -3.75q0 -2.328125 1.28125 -3.734375q1.296875 -1.40625 3.484375 -1.40625zm-3.0625 5.140625q0 1.703125 0.859375 2.703125q0.875 1.0 2.203125 1.0q1.328125 0 2.1875 -1.0q0.875 -1.015625 0.875 -2.703125q0 -1.671875 -0.859375 -2.6875q-0.859375 -1.03125 -2.21875 -1.03125q-1.296875 0 -2.171875 1.015625q-0.875 1.0 -0.875 2.703125zm14.431519 -5.15625q0.046875 0 0.09375 0q0.046875 0 0.125 0.015625l0 1.703125q-1.8125 0 -2.6875 0.96875q-0.859375 0.96875 -0.859375 2.984375l0 4.390625l-1.625 0l0 -9.828125l1.53125 0l0 2.078125l0.03125 0q0.5625 -1.171875 1.390625 -1.734375q0.828125 -0.578125 2.0 -0.578125zm4.587677 0.015625q1.984375 0 2.9375 0.78125q0.96875 0.765625 1.0625 2.28125l-1.609375 0l0 -0.015625q-0.0625 -0.78125 -0.6875 -1.203125q-0.609375 -0.421875 -1.578125 -0.421875q-0.984375 0 -1.546875 0.328125q-0.5625 0.328125 -0.5625 0.921875q0 0.53125 0.5 0.875q0.5 0.34375 1.5 0.5625l1.515625 0.34375q1.4375 0.3125 2.171875 0.96875q0.75 0.65625 0.75 1.765625q0 1.4375 -1.125 2.265625q-1.125 0.828125 -3.0625 0.828125q-1.890625 0 -3.0 -0.84375q-1.09375 -0.84375 -1.171875 -2.484375l1.625 0q0.03125 0.90625 0.71875 1.40625q0.703125 0.484375 1.921875 0.484375q1.171875 0 1.765625 -0.359375q0.609375 -0.375 0.609375 -1.09375q0 -0.671875 -0.609375 -1.046875q-0.59375 -0.390625 -2.4375 -0.765625q-1.859375 -0.359375 -2.625 -1.015625q-0.75 -0.671875 -0.75 -1.765625q0 -1.296875 1.046875 -2.046875q1.046875 -0.75 2.640625 -0.75z" fill-rule="nonzero"></path><path fill="#000000" fill-opacity="0.0" d="m401.12552 48.924397l90.38443 0l0 118.25577l-166.62314 0" fill-rule="nonzero"></path><path stroke="#000000" stroke-width="3.0" stroke-linejoin="round" stroke-linecap="butt" d="m401.12552 48.924397l90.38446 0l0 118.25578l-148.62317 0" fill-rule="evenodd"></path><path fill="#000000" stroke="#000000" stroke-width="3.0" stroke-linecap="butt" d="m342.8868 162.22498l-13.614288 4.9552l13.614288 4.955185z" fill-rule="evenodd"></path><path fill="#000000" fill-opacity="0.0" d="m211.71957 167.18127l-133.61392 0l0 -101.04158l47.156845 0" fill-rule="nonzero"></path><path stroke="#000000" stroke-width="3.0" stroke-linejoin="round" stroke-linecap="butt" d="m211.71959 167.18126l-133.61395 0l0 -101.041565l29.156845 0" fill-rule="evenodd"></path><path fill="#000000" stroke="#000000" stroke-width="3.0" stroke-linecap="butt" d="m107.26249 71.09489l13.614288 -4.9551926l-13.614288 -4.9552z" fill-rule="evenodd"></path><path fill="#000000" fill-opacity="0.0" d="m396.73486 20.113152l105.322845 0l0 28.440945l-105.322845 0z" fill-rule="nonzero"></path><path fill="#000000" d="m433.7103 29.41315q1.359375 0 2.359375 0.625q1.0 0.625 1.546875 1.765625q0.546875 1.125 0.546875 2.46875q0 1.359375 -0.546875 2.484375q-0.546875 1.125 -1.5625 1.75q-1.0 0.625 -2.34375 0.625q-1.34375 0 -2.34375 -0.609375q-1.0 -0.625 -1.546875 -1.75q-0.546875 -1.140625 -0.546875 -2.5q0 -2.109375 1.203125 -3.484375q1.203125 -1.375 3.234375 -1.375zm-3.203125 4.859375q0 1.03125 0.375 1.9375q0.375 0.890625 1.109375 1.390625q0.734375 0.5 1.71875 0.5q1.5 0 2.359375 -1.078125q0.859375 -1.078125 0.859375 -2.75q0 -1.65625 -0.859375 -2.734375q-0.84375 -1.09375 -2.375 -1.09375q-1.484375 0 -2.34375 1.09375q-0.84375 1.09375 -0.84375 2.734375zm10.329376 -2.078125l0 4.578125q0 0.578125 0.359375 0.953125q0.375 0.375 1.015625 0.375q0.953125 0 1.46875 -0.578125q0.515625 -0.59375 0.515625 -1.484375l0 -3.84375l1.109375 0l0 6.71875l-1.046875 0l0 -1.0625l-0.03125 0q-0.359375 0.640625 -0.921875 0.9375q-0.546875 0.28125 -1.265625 0.28125q-1.171875 0 -1.75 -0.59375q-0.5625 -0.609375 -0.5625 -1.796875l0 -4.484375l1.109375 0zm7.8499756 -2.015625l0 2.015625l1.328125 0l0 0.96875l-1.328125 0l0 4.21875q0 0.5 0.328125 0.53125q0.328125 0.015625 0.6875 0.015625l0.3125 0l0 0.984375l-0.90625 0q-0.90625 0 -1.21875 -0.3125q-0.3125 -0.328125 -0.3125 -1.09375l0 -4.34375l-1.15625 0l0 -0.96875l1.15625 0l0 -2.015625l1.109375 0zm5.9632263 1.859375q1.453125 0 2.28125 1.0q0.828125 0.984375 0.828125 2.53125q0 1.5625 -0.828125 2.53125q-0.828125 0.96875 -2.25 0.96875q-0.625 0 -1.234375 -0.25q-0.59375 -0.265625 -0.9375 -0.796875l-0.03125 0l0 3.46875l-1.09375 0l0 -9.296875l1.09375 0l0 0.90625l0.03125 0q0.265625 -0.515625 0.828125 -0.78125q0.5625 -0.28125 1.3125 -0.28125zm-2.203125 3.515625q0 1.15625 0.5625 1.859375q0.5625 0.6875 1.5625 0.6875q0.953125 0 1.46875 -0.6875q0.53125 -0.6875 0.53125 -1.921875q0 -1.078125 -0.5625 -1.78125q-0.546875 -0.703125 -1.515625 -0.703125q-0.96875 0 -1.515625 0.71875q-0.53125 0.703125 -0.53125 1.828125zm7.900543 -3.359375l0 4.578125q0 0.578125 0.359375 0.953125q0.375 0.375 1.015625 0.375q0.953125 0 1.46875 -0.578125q0.515625 -0.59375 0.515625 -1.484375l0 -3.84375l1.109375 0l0 6.71875l-1.046875 0l0 -1.0625l-0.03125 0q-0.359375 0.640625 -0.921875 0.9375q-0.546875 0.28125 -1.265625 0.28125q-1.171875 0 -1.75 -0.59375q-0.5625 -0.609375 -0.5625 -1.796875l0 -4.484375l1.109375 0zm7.8499756 -2.015625l0 2.015625l1.328125 0l0 0.96875l-1.328125 0l0 4.21875q0 0.5 0.328125 0.53125q0.328125 0.015625 0.6875 0.015625l0.3125 0l0 0.984375l-0.90625 0q-0.90625 0 -1.21875 -0.3125q-0.3125 -0.328125 -0.3125 -1.09375l0 -4.34375l-1.15625 0l0 -0.96875l1.15625 0l0 -2.015625l1.109375 0z" fill-rule="nonzero"></path><path fill="#000000" fill-opacity="0.0" d="m97.17367 132.64049l105.32284 0l0 28.440948l-105.32284 0z" fill-rule="nonzero"></path><path fill="#000000" d="m127.44102 142.15924l0 1.046875l-4.859375 0l0 2.9375l4.265625 0l0 1.046875l-4.265625 0l0 4.25l-1.234375 0l0 -9.28125l6.09375 0zm4.1688766 2.40625q1.453125 0 2.25 1.046875q0.796875 1.03125 0.796875 2.671875l0 0.125l-5.03125 0l0 0.078125q0 0.96875 0.546875 1.5625q0.5625 0.578125 1.546875 0.578125q0.734375 0 1.171875 -0.34375q0.4375 -0.34375 0.5625 -0.984375l1.09375 0q-0.21875 1.125 -0.984375 1.71875q-0.75 0.578125 -1.890625 0.578125q-1.046875 0 -1.78125 -0.46875q-0.734375 -0.484375 -1.09375 -1.328125q-0.34375 -0.859375 -0.34375 -1.765625q0 -1.484375 0.890625 -2.46875q0.90625 -1.0 2.265625 -1.0zm-1.984375 2.875l3.859375 0q-0.046875 -0.828125 -0.59375 -1.359375q-0.546875 -0.546875 -1.359375 -0.546875q-0.765625 0 -1.3125 0.515625q-0.53125 0.515625 -0.59375 1.390625zm9.143036 -2.875q1.453125 0 2.25 1.046875q0.796875 1.03125 0.796875 2.671875l0 0.125l-5.03125 0l0 0.078125q0 0.96875 0.546875 1.5625q0.5625 0.578125 1.546875 0.578125q0.734375 0 1.171875 -0.34375q0.4375 -0.34375 0.5625 -0.984375l1.09375 0q-0.21875 1.125 -0.984375 1.71875q-0.75 0.578125 -1.890625 0.578125q-1.046875 0 -1.78125 -0.46875q-0.734375 -0.484375 -1.09375 -1.328125q-0.34375 -0.859375 -0.34375 -1.765625q0 -1.484375 0.890625 -2.46875q0.90625 -1.0 2.265625 -1.0zm-1.984375 2.875l3.859375 0q-0.046875 -0.828125 -0.59375 -1.359375q-0.546875 -0.546875 -1.359375 -0.546875q-0.765625 0 -1.3125 0.515625q-0.53125 0.515625 -0.59375 1.390625zm12.361786 -5.28125l0 9.28125l-1.109375 0l0 -0.90625l-0.03125 0q-0.25 0.515625 -0.828125 0.796875q-0.5625 0.265625 -1.3125 0.265625q-1.40625 0 -2.25 -0.96875q-0.84375 -0.984375 -0.84375 -2.5625q0 -1.5625 0.8125 -2.53125q0.8125 -0.96875 2.25 -0.96875q0.65625 0 1.25 0.265625q0.59375 0.265625 0.921875 0.78125l0.03125 0l0 -3.453125l1.109375 0zm-5.203125 5.96875q0 1.09375 0.5625 1.796875q0.5625 0.703125 1.515625 0.703125q0.984375 0 1.515625 -0.703125q0.53125 -0.703125 0.53125 -1.84375q0 -1.140625 -0.546875 -1.84375q-0.546875 -0.703125 -1.578125 -0.703125q-0.953125 0 -1.484375 0.703125q-0.515625 0.6875 -0.515625 1.890625zm8.228683 -5.96875l0 3.46875l0.03125 0q0.265625 -0.515625 0.8125 -0.78125q0.5625 -0.28125 1.328125 -0.28125q1.453125 0 2.28125 1.0q0.828125 0.984375 0.828125 2.53125q0 1.5625 -0.828125 2.53125q-0.828125 0.96875 -2.25 0.96875q-0.625 0 -1.234375 -0.25q-0.59375 -0.265625 -0.9375 -0.796875l-0.03125 0l0 0.890625l-1.09375 0l0 -9.28125l1.09375 0zm-0.03125 5.921875q0 1.15625 0.5625 1.859375q0.5625 0.6875 1.5625 0.6875q0.953125 0 1.46875 -0.6875q0.53125 -0.6875 0.53125 -1.921875q0 -1.078125 -0.5625 -1.78125q-0.546875 -0.703125 -1.515625 -0.703125q-0.96875 0 -1.515625 0.71875q-0.53125 0.703125 -0.53125 1.828125zm9.541199 -3.515625q1.375 0 1.9375 0.5q0.578125 0.484375 0.578125 1.296875q0 3.5 0 3.890625q0 0.375 0.359375 0.375q0.078125 0 0.15625 -0.015625q0.09375 -0.03125 0.171875 -0.046875l0 0.84375q-0.140625 0.09375 -0.34375 0.140625q-0.203125 0.046875 -0.4375 0.046875q-0.453125 0 -0.703125 -0.25q-0.234375 -0.265625 -0.234375 -0.78125q-0.4375 0.515625 -1.046875 0.78125q-0.59375 0.25 -1.3281403 0.25q-1.03125 0 -1.625 -0.484375q-0.59375 -0.5 -0.59375 -1.40625q0 -0.90625 0.578125 -1.421875q0.578125 -0.53125 2.7187653 -0.8125q0.71875 -0.09375 0.96875 -0.265625q0.265625 -0.1875 0.265625 -0.5625q0 -0.546875 -0.359375 -0.828125q-0.359375 -0.28125 -1.140625 -0.28125q-0.81251526 0 -1.2343903 0.3125q-0.40625 0.3125 -0.4375 0.96875l-1.09375 0q0.046875 -1.125 0.78125 -1.6875q0.734375 -0.5625 2.0625153 -0.5625zm-1.9375153 5.0625q0 0.46875 0.34375 0.734375q0.34375 0.265625 0.953125 0.265625q0.93751526 0 1.4843903 -0.46875q0.5625 -0.46875 0.5625 -1.03125l0 -1.15625q-0.28125 0.1875 -0.71875 0.265625q-0.4375 0.0625 -1.1875 0.171875q-0.73439026 0.109375 -1.0937653 0.40625q-0.34375 0.28125 -0.34375 0.8125zm9.158676 -5.0625q1.234375 0 2.0 0.59375q0.765625 0.578125 0.890625 1.71875l-1.140625 0q-0.125 -0.65625 -0.5625 -1.0q-0.4375 -0.34375 -1.09375 -0.34375q-1.03125 0 -1.5625 0.6875q-0.53125 0.6875 -0.53125 1.9375q0 1.125 0.515625 1.796875q0.53125 0.671875 1.4375 0.671875q0.8125 0 1.28125 -0.4375q0.46875 -0.4375 0.578125 -1.203125l1.125 0q-0.1875 1.25 -0.953125 1.9375q-0.75 0.671875 -2.015625 0.671875q-1.46875 0 -2.3125 -0.921875q-0.828125 -0.921875 -0.828125 -2.515625q0 -1.640625 0.84375 -2.609375q0.859375 -0.984375 2.328125 -0.984375zm5.518036 -2.40625l0 5.5l3.078125 -2.9375l1.46875 0l-2.65625 2.4375l2.859375 4.28125l-1.40625 0l-2.296875 -3.515625l-1.046875 0.96875l0 2.546875l-1.109375 0l0 -9.28125l1.109375 0z" fill-rule="nonzero"></path></g></svg>

