<?xml version="1.0" encoding="UTF-8" standalone="no"?>
<svg width="359px" height="353px" viewBox="0 0 359 353" version="1.1" xmlns="http://www.w3.org/2000/svg" xmlns:xlink="http://www.w3.org/1999/xlink">
    <!-- Generator: Sketch 39.1 (31720) - http://www.bohemiancoding.com/sketch -->
    <title>Artboard</title>
    <desc>Created with Sketch.</desc>
    <defs>
        <rect id="path-1" x="112" y="143" width="83" height="152" rx="8"></rect>
        <mask id="mask-2" maskContentUnits="userSpaceOnUse" maskUnits="objectBoundingBox" x="0" y="0" width="83" height="152" fill="white">
            <use xlink:href="#path-1"></use>
        </mask>
        <rect id="path-3" x="103" y="252" width="10" height="38" rx="5"></rect>
        <mask id="mask-4" maskContentUnits="userSpaceOnUse" maskUnits="objectBoundingBox" x="0" y="0" width="10" height="38" fill="white">
            <use xlink:href="#path-3"></use>
        </mask>
        <rect id="path-5" x="103" y="152" width="10" height="38" rx="5"></rect>
        <mask id="mask-6" maskContentUnits="userSpaceOnUse" maskUnits="objectBoundingBox" x="0" y="0" width="10" height="38" fill="white">
            <use xlink:href="#path-5"></use>
        </mask>
        <rect id="path-7" x="194" y="152" width="10" height="38" rx="5"></rect>
        <mask id="mask-8" maskContentUnits="userSpaceOnUse" maskUnits="objectBoundingBox" x="0" y="0" width="10" height="38" fill="white">
            <use xlink:href="#path-7"></use>
        </mask>
        <rect id="path-9" x="194" y="252" width="10" height="38" rx="5"></rect>
        <mask id="mask-10" maskContentUnits="userSpaceOnUse" maskUnits="objectBoundingBox" x="0" y="0" width="10" height="38" fill="white">
            <use xlink:href="#path-9"></use>
        </mask>
        <rect id="path-11" x="0" y="0" width="87.1538462" height="58.1571429"></rect>
        <mask id="mask-12" maskContentUnits="userSpaceOnUse" maskUnits="objectBoundingBox" x="0" y="0" width="87.1538462" height="58.1571429" fill="white">
            <use xlink:href="#path-11"></use>
        </mask>
        <path d="M153.505038,260.968537 C153.294464,260.969742 153.083747,260.970346 152.872889,260.970346 C93.1723125,260.970346 44.7754326,212.573466 44.7754326,152.872889 C44.7754326,93.1723125 93.1723125,44.7754326 152.872889,44.7754326 C212.573466,44.7754326 260.970346,93.1723125 260.970346,152.872889 C260.970346,153.083747 260.969742,153.294464 260.968537,153.505038 L153.505038,153.505038 L153.505038,260.968537 Z" id="path-13"></path>
        <mask id="mask-14" maskContentUnits="userSpaceOnUse" maskUnits="objectBoundingBox" x="0" y="0" width="216.194913" height="216.194913" fill="white">
            <use xlink:href="#path-13"></use>
        </mask>
        <path d="M167.998162,129.174813 C175.552471,124.675856 182.676266,119.175557 189.177908,112.673915 C210.252922,91.5989013 220.806568,63.9867473 220.838846,36.3645812 L112.741463,36.3645812 L167.998162,129.174813 Z" id="path-15"></path>
        <mask id="mask-16" maskContentUnits="userSpaceOnUse" maskUnits="objectBoundingBox" x="0" y="0" width="108.097382" height="92.8102318" fill="white">
            <use xlink:href="#path-15"></use>
        </mask>
        <circle id="path-17" cx="153" cy="162" r="10"></circle>
        <mask id="mask-18" maskContentUnits="userSpaceOnUse" maskUnits="objectBoundingBox" x="0" y="0" width="20" height="20" fill="white">
            <use xlink:href="#path-17"></use>
        </mask>
    </defs>
    <g id="Page-1" stroke="none" stroke-width="1" fill="none" fill-rule="evenodd">
        <g id="Artboard">
            <g id="Group-3" transform="translate(27.000000, 7.000000)">
                <use id="Rectangle-2" stroke="#979797" mask="url(#mask-2)" stroke-width="2" fill="#FFFFFF" xlink:href="#path-1"></use>
                <use id="Rectangle-4" stroke="#979797" mask="url(#mask-4)" stroke-width="2" fill="#FFFFFF" xlink:href="#path-3"></use>
                <use id="Rectangle-4" stroke="#979797" mask="url(#mask-6)" stroke-width="2" fill="#5F5F5F" xlink:href="#path-5"></use>
                <use id="Rectangle-4" stroke="#979797" mask="url(#mask-8)" stroke-width="2" fill="#5F5F5F" xlink:href="#path-7"></use>
                <use id="Rectangle-4" stroke="#979797" mask="url(#mask-10)" stroke-width="2" fill="#FFFFFF" xlink:href="#path-9"></use>
                <g id="Group-2" transform="translate(160.000000, 62.500000) rotate(8.000000) translate(-160.000000, -62.500000) translate(116.000000, 33.000000)" stroke="#F01010">
                    <g id="Group" transform="translate(-0.000000, 0.000000)">
                        <use id="Rectangle-5" mask="url(#mask-12)" stroke-width="2" fill="#FF8383" xlink:href="#path-11"></use>
                        <path d="M0.2578125,0.986077009 L86.6150841,57.0327846" id="Path-2"></path>
                        <path d="M0.423076923,57.7357143 L86.7307692,0.986077009" id="Path-2"></path>
                    </g>
                </g>
                <use id="Combined-Shape" stroke="#3C7EB1" mask="url(#mask-14)" stroke-width="2" fill="#85D4FF" opacity="0.641382929" transform="translate(152.872889, 152.872889) rotate(-315.000000) translate(-152.872889, -152.872889) " xlink:href="#path-13"></use>
                <use id="Combined-Shape" stroke="#AAA834" mask="url(#mask-16)" stroke-width="2" fill="#FCFF85" opacity="0.641382929" transform="translate(166.790154, 82.769697) rotate(-119.000000) translate(-166.790154, -82.769697) " xlink:href="#path-15"></use>
                <use id="Oval" stroke="#979797" mask="url(#mask-18)" stroke-width="2" fill="#FFFFFF" xlink:href="#path-17"></use>
                <g id="clear" transform="translate(140.000000, 247.000000)" fill="#E92B1D">
                    <polygon id="Shape" points="26 2.6 23.4 0 13 10.4 2.6 0 0 2.6 10.4 13 0 23.4 2.6 26 13 15.6 23.4 26 26 23.4 15.6 13"></polygon>
                </g>
            </g>
        </g>
    </g>
</svg>
