<?xml version="1.0" encoding="UTF-8" standalone="no"?>
<svg width="801px" height="752px" viewBox="0 0 801 752" version="1.1" xmlns="http://www.w3.org/2000/svg" xmlns:xlink="http://www.w3.org/1999/xlink" style="background: #FFFFFF;">
    <!-- Generator: Sketch 39.1 (31720) - http://www.bohemiancoding.com/sketch -->
    <title>Artboard</title>
    <desc>Created with Sketch.</desc>
    <defs>
        <rect id="path-1" x="8.95703897" y="19.2007973" width="314" height="257.56896"></rect>
        <mask id="mask-2" maskContentUnits="userSpaceOnUse" maskUnits="objectBoundingBox" x="0" y="0" width="314" height="257.56896" fill="white">
            <use xlink:href="#path-1"></use>
        </mask>
        <rect id="path-3" x="104" y="-1.25233157e-13" width="87.1538462" height="58.1571429"></rect>
        <mask id="mask-4" maskContentUnits="userSpaceOnUse" maskUnits="objectBoundingBox" x="0" y="0" width="87.1538462" height="58.1571429" fill="white">
            <use xlink:href="#path-3"></use>
        </mask>
        <rect id="path-5" x="0.99725907" y="0.895328088" width="10" height="38" rx="5"></rect>
        <mask id="mask-6" maskContentUnits="userSpaceOnUse" maskUnits="objectBoundingBox" x="0" y="0" width="10" height="38" fill="white">
            <use xlink:href="#path-5"></use>
        </mask>
        <rect id="path-7" x="90" y="1" width="10" height="38" rx="5"></rect>
        <mask id="mask-8" maskContentUnits="userSpaceOnUse" maskUnits="objectBoundingBox" x="0" y="0" width="10" height="38" fill="white">
            <use xlink:href="#path-7"></use>
        </mask>
        <rect id="path-9" x="9" y="2.27373675e-13" width="83" height="152" rx="8"></rect>
        <mask id="mask-10" maskContentUnits="userSpaceOnUse" maskUnits="objectBoundingBox" x="0" y="0" width="83" height="152" fill="white">
            <use xlink:href="#path-9"></use>
        </mask>
        <rect id="path-11" x="1.84741111e-13" y="109" width="10" height="38" rx="5"></rect>
        <mask id="mask-12" maskContentUnits="userSpaceOnUse" maskUnits="objectBoundingBox" x="0" y="0" width="10" height="38" fill="white">
            <use xlink:href="#path-11"></use>
        </mask>
        <rect id="path-13" x="91" y="109" width="10" height="38" rx="5"></rect>
        <mask id="mask-14" maskContentUnits="userSpaceOnUse" maskUnits="objectBoundingBox" x="0" y="0" width="10" height="38" fill="white">
            <use xlink:href="#path-13"></use>
        </mask>
        <circle id="path-15" cx="50" cy="19" r="10"></circle>
        <mask id="mask-16" maskContentUnits="userSpaceOnUse" maskUnits="objectBoundingBox" x="0" y="0" width="20" height="20" fill="white">
            <use xlink:href="#path-15"></use>
        </mask>
        <path d="M55.5177357,164.184642 C114.124121,163.80953 161.517736,116.184204 161.517736,57.4895049 C161.517736,-1.20519376 114.124121,-48.8305206 55.5177357,-49.2056323 L55.5177357,164.184642 Z" id="path-17"></path>
        <mask id="mask-18" maskContentUnits="userSpaceOnUse" maskUnits="objectBoundingBox" x="0" y="0" width="106" height="213.390274" fill="white">
            <use xlink:href="#path-17"></use>
        </mask>
        <rect id="path-19" x="0.99725907" y="0.895328088" width="10" height="38" rx="5"></rect>
        <mask id="mask-20" maskContentUnits="userSpaceOnUse" maskUnits="objectBoundingBox" x="0" y="0" width="10" height="38" fill="white">
            <use xlink:href="#path-19"></use>
        </mask>
        <rect id="path-21" x="90" y="1" width="10" height="38" rx="5"></rect>
        <mask id="mask-22" maskContentUnits="userSpaceOnUse" maskUnits="objectBoundingBox" x="0" y="0" width="10" height="38" fill="white">
            <use xlink:href="#path-21"></use>
        </mask>
        <rect id="path-23" x="9" y="2.27373675e-13" width="83" height="152" rx="8"></rect>
        <mask id="mask-24" maskContentUnits="userSpaceOnUse" maskUnits="objectBoundingBox" x="0" y="0" width="83" height="152" fill="white">
            <use xlink:href="#path-23"></use>
        </mask>
        <rect id="path-25" x="1.84741111e-13" y="109" width="10" height="38" rx="5"></rect>
        <mask id="mask-26" maskContentUnits="userSpaceOnUse" maskUnits="objectBoundingBox" x="0" y="0" width="10" height="38" fill="white">
            <use xlink:href="#path-25"></use>
        </mask>
        <rect id="path-27" x="91" y="109" width="10" height="38" rx="5"></rect>
        <mask id="mask-28" maskContentUnits="userSpaceOnUse" maskUnits="objectBoundingBox" x="0" y="0" width="10" height="38" fill="white">
            <use xlink:href="#path-27"></use>
        </mask>
        <circle id="path-29" cx="50" cy="19" r="10"></circle>
        <mask id="mask-30" maskContentUnits="userSpaceOnUse" maskUnits="objectBoundingBox" x="0" y="0" width="20" height="20" fill="white">
            <use xlink:href="#path-29"></use>
        </mask>
        <rect id="path-31" x="112" y="143" width="83" height="152" rx="8"></rect>
        <mask id="mask-32" maskContentUnits="userSpaceOnUse" maskUnits="objectBoundingBox" x="0" y="0" width="83" height="152" fill="white">
            <use xlink:href="#path-31"></use>
        </mask>
        <rect id="path-33" x="103" y="252" width="10" height="38" rx="5"></rect>
        <mask id="mask-34" maskContentUnits="userSpaceOnUse" maskUnits="objectBoundingBox" x="0" y="0" width="10" height="38" fill="white">
            <use xlink:href="#path-33"></use>
        </mask>
        <rect id="path-35" x="103" y="152" width="10" height="38" rx="5"></rect>
        <mask id="mask-36" maskContentUnits="userSpaceOnUse" maskUnits="objectBoundingBox" x="0" y="0" width="10" height="38" fill="white">
            <use xlink:href="#path-35"></use>
        </mask>
        <rect id="path-37" x="194" y="152" width="10" height="38" rx="5"></rect>
        <mask id="mask-38" maskContentUnits="userSpaceOnUse" maskUnits="objectBoundingBox" x="0" y="0" width="10" height="38" fill="white">
            <use xlink:href="#path-37"></use>
        </mask>
        <rect id="path-39" x="194" y="252" width="10" height="38" rx="5"></rect>
        <mask id="mask-40" maskContentUnits="userSpaceOnUse" maskUnits="objectBoundingBox" x="0" y="0" width="10" height="38" fill="white">
            <use xlink:href="#path-39"></use>
        </mask>
        <path d="M153.505038,260.968537 C153.294464,260.969742 153.083747,260.970346 152.872889,260.970346 C93.1723125,260.970346 44.7754326,212.573466 44.7754326,152.872889 C44.7754326,93.1723125 93.1723125,44.7754326 152.872889,44.7754326 C212.573466,44.7754326 260.970346,93.1723125 260.970346,152.872889 C260.970346,153.083747 260.969742,153.294464 260.968537,153.505038 L153.505038,153.505038 L153.505038,260.968537 Z" id="path-41"></path>
        <mask id="mask-42" maskContentUnits="userSpaceOnUse" maskUnits="objectBoundingBox" x="0" y="0" width="216.194913" height="216.194913" fill="white">
            <use xlink:href="#path-41"></use>
        </mask>
        <circle id="path-43" cx="153" cy="162" r="10"></circle>
        <mask id="mask-44" maskContentUnits="userSpaceOnUse" maskUnits="objectBoundingBox" x="0" y="0" width="20" height="20" fill="white">
            <use xlink:href="#path-43"></use>
        </mask>
    </defs>
    <g id="Page-1" stroke="none" stroke-width="1" fill="none" fill-rule="evenodd">
        <g id="Artboard">
            <g id="Group-2" transform="translate(412.646438, 179.813225) rotate(4.000000) translate(-412.646438, -179.813225) translate(246.646438, 35.813225)">
                <g id="Group" transform="translate(-0.000000, -0.000000)">
                    <use id="Rectangle" stroke="#979797" mask="url(#mask-2)" stroke-width="14" fill="#FFFFFF" transform="translate(165.957039, 147.985277) rotate(-4.000000) translate(-165.957039, -147.985277) " xlink:href="#path-1"></use>
                    <use id="Rectangle-5" stroke="#F01010" mask="url(#mask-4)" stroke-width="2" fill="#FF8383" xlink:href="#path-3"></use>
                </g>
            </g>
            <g id="Group-6" transform="translate(328.023189, 583.206489) rotate(5.000000) translate(-328.023189, -583.206489) translate(219.523189, 451.706489)">
                <g id="Group-5" transform="translate(53.000000, 107.000000)" stroke="#979797" stroke-width="2">
                    <g id="Group-3" transform="translate(53.800794, 30.078893) rotate(3.000000) translate(-53.800794, -30.078893) translate(3.800794, 10.078893)" fill="#5F5F5F">
                        <use id="Rectangle-4" mask="url(#mask-6)" xlink:href="#path-5"></use>
                        <use id="Rectangle-4" mask="url(#mask-8)" xlink:href="#path-7"></use>
                    </g>
                    <g id="Group-4" transform="translate(53.944197, 78.205632) rotate(2.000000) translate(-53.944197, -78.205632) translate(3.444197, 2.205632)" fill="#FFFFFF">
                        <use id="Rectangle-2" mask="url(#mask-10)" xlink:href="#path-9"></use>
                        <use id="Rectangle-4" mask="url(#mask-12)" xlink:href="#path-11"></use>
                        <use id="Rectangle-4" mask="url(#mask-14)" xlink:href="#path-13"></use>
                        <use id="Oval" mask="url(#mask-16)" xlink:href="#path-15"></use>
                    </g>
                </g>
                <use id="Combined-Shape" stroke="#43A107" mask="url(#mask-18)" stroke-width="4" fill="#54CF04" opacity="0.468808302" transform="translate(108.517736, 57.489505) rotate(-88.000000) translate(-108.517736, -57.489505) " xlink:href="#path-17"></use>
            </g>
            <g id="Group-6" transform="translate(485.366043, 223.171143) rotate(21.000000) translate(-485.366043, -223.171143) translate(431.366043, 145.171143)" stroke-width="2" stroke="#979797">
                <g id="Group-5">
                    <g id="Group-3" transform="translate(53.800794, 30.078893) rotate(3.000000) translate(-53.800794, -30.078893) translate(3.800794, 10.078893)" fill="#5F5F5F">
                        <use id="Rectangle-4" mask="url(#mask-20)" xlink:href="#path-19"></use>
                        <use id="Rectangle-4" mask="url(#mask-22)" xlink:href="#path-21"></use>
                    </g>
                    <g id="Group-4" transform="translate(53.944197, 78.205632) rotate(2.000000) translate(-53.944197, -78.205632) translate(3.444197, 2.205632)" fill="#FFFFFF">
                        <use id="Rectangle-2" mask="url(#mask-24)" xlink:href="#path-23"></use>
                        <use id="Rectangle-4" mask="url(#mask-26)" xlink:href="#path-25"></use>
                        <use id="Rectangle-4" mask="url(#mask-28)" xlink:href="#path-27"></use>
                        <use id="Oval" mask="url(#mask-30)" xlink:href="#path-29"></use>
                    </g>
                </g>
            </g>
            <g id="Group-7" transform="translate(508.722432, 181.925626) rotate(60.000000) translate(-508.722432, -181.925626) translate(408.722432, 125.925626)" stroke="#007BFF" stroke-width="3" stroke-linecap="square">
                <path d="M10.7228666,111.019073 C10.7228666,111.019073 -3.92557101,89.8647764 1.0197414,80.011261 C5.96505382,70.1577455 39.9123196,71.0190738 39.9123196,71.0190738" id="Line"></path>
                <path id="Line-decoration-1" d="M39.9123196,71.0190738 L29.1123196,68.0190738 L29.1123196,74.0190738 L39.9123196,71.0190738 Z"></path>
                <path d="M170.722867,40.0190735 C170.722867,40.0190735 156.074429,18.8647764 161.019741,9.01126099 C165.965054,-0.84225447 199.91232,0.01907375 199.91232,0.01907375" id="Line"></path>
                <path id="Line-decoration-1" d="M199.91232,0.01907375 L189.11232,-2.98092625 L189.11232,3.01907375 L199.91232,0.01907375 Z"></path>
            </g>
            <path d="M388.234375,39.5 C380.329351,39.5 344.605267,38.6141026 331.53125,40.890625 C327.203763,41.6441518 323.372657,44.3938206 319.03125,45.0625 C303.001374,47.5314801 306.565181,41.5660607 291.9375,48.53125 C274.360799,56.9006595 258.146339,68.1364643 238.460938,68.671875 C200.46117,69.7054065 138.02858,59.1007322 106.492187,91.59375 C100.409604,97.8608422 84.4582305,150.771834 80.796875,161.742188 C68.5971486,198.295675 53.8961754,233.133137 43.984375,270.789062 C43.2770717,273.476179 44.1221409,276.349771 43.984375,279.125 L44.6796875,323.578125 C44.646634,324.243972 42.7318236,322.9135 42.6796875,323.578125 L42.6796875,406.921875" id="Path-3" stroke="#979797"></path>
            <path d="M410.796875,38.28125 C432.007215,38.28125 431.582108,34.6063503 447.601562,46.6171875 C448.843652,47.5484636 448.317504,50.0510645 449.6875,50.78125 C452.173489,52.1062412 455.351079,51.2806713 458.023438,52.171875 C492.014188,63.5074359 475.781381,64.9077156 516.367188,61.8984375 C524.112071,61.3241848 531.526601,57.9656693 539.289063,57.7265625 C576.776491,56.571839 614.364904,55.5122357 651.804688,57.7265625 C657.90713,58.0874834 662.630398,63.5804534 668.476563,65.3671875 C674.519138,67.2139496 679.746467,66.1491123 685.835938,67.453125 C705.160601,71.5913516 723.938317,77.1408716 742.789062,83.4296875 C749.009127,85.5047696 745.162336,80.4939157 751.125,85.5078125 C764.887061,97.0800821 760.708361,97.7359236 771.875,117.375 C784.937334,140.348089 789.589018,163.717277 780.90625,191 C774.984832,209.606094 770.885658,205.362536 768.40625,228.507812 C767.148604,240.247934 767.968758,252.130504 768.40625,263.929688 C769.452794,292.15501 775.164991,297.73735 780.210938,331.992188 C781.121772,338.175462 779.683921,344.514447 780.210938,350.742188 C784.505762,401.494012 792.41299,445.462773 795.492188,495.90625" id="Path-4" stroke="#979797"></path>
            <g id="Group-8" transform="translate(677.000000, 376.000000) rotate(180.000000) translate(-677.000000, -376.000000) translate(524.000000, 223.000000)">
                <use id="Rectangle-2" stroke="#979797" mask="url(#mask-32)" stroke-width="2" fill="#FFFFFF" xlink:href="#path-31"></use>
                <use id="Rectangle-4" stroke="#979797" mask="url(#mask-34)" stroke-width="2" fill="#FFFFFF" xlink:href="#path-33"></use>
                <use id="Rectangle-4" stroke="#979797" mask="url(#mask-36)" stroke-width="2" fill="#5F5F5F" xlink:href="#path-35"></use>
                <use id="Rectangle-4" stroke="#979797" mask="url(#mask-38)" stroke-width="2" fill="#5F5F5F" xlink:href="#path-37"></use>
                <use id="Rectangle-4" stroke="#979797" mask="url(#mask-40)" stroke-width="2" fill="#FFFFFF" xlink:href="#path-39"></use>
                <use id="Combined-Shape" stroke="#3C7EB1" mask="url(#mask-42)" stroke-width="2" fill="#85D4FF" opacity="0.641382929" transform="translate(152.872889, 152.872889) rotate(-315.000000) translate(-152.872889, -152.872889) " xlink:href="#path-41"></use>
                <use id="Oval" stroke="#979797" mask="url(#mask-44)" stroke-width="2" fill="#FFFFFF" xlink:href="#path-43"></use>
                <path d="M158.5,163.5 L54.4951924,163.5" id="Line" stroke="#191919" stroke-linecap="square"></path>
                <path id="Line-decoration-1" d="M54.4951924,163.5 L65.2951924,166.5 L65.2951924,160.5 L54.4951924,163.5 Z" stroke="#191919" stroke-linecap="square"></path>
                <path d="M158.5,163.5 L45.5,130.5" id="Line" stroke="#191919" stroke-linecap="square"></path>
                <path id="Line-decoration-1" d="M45.5,130.5 L55.0259933,136.407237 L56.7079504,130.647808 L45.5,130.5 Z" stroke="#191919" stroke-linecap="square"></path>
            </g>
            <path d="M427.996094,608.417969 L427.996094,620 L425.59375,620 L425.59375,591.5625 L435.28125,591.5625 C438.236994,591.5625 440.570955,592.317701 442.283203,593.828125 C443.995451,595.338549 444.851562,597.415351 444.851562,600.058594 C444.851562,602.727878 444.028003,604.788404 442.380859,606.240234 C440.733716,607.692065 438.347672,608.417969 435.222656,608.417969 L427.996094,608.417969 Z M427.996094,606.386719 L435.28125,606.386719 C437.611991,606.386719 439.389317,605.833339 440.613281,604.726562 C441.837246,603.619786 442.449219,602.076833 442.449219,600.097656 C442.449219,598.131501 441.840501,596.565761 440.623047,595.400391 C439.405593,594.23502 437.677095,593.639323 435.4375,593.613281 L427.996094,593.613281 L427.996094,606.386719 Z M452,602.441406 C452.768233,601.178379 453.751296,600.201826 454.949219,599.511719 C456.147141,598.821611 457.455722,598.476562 458.875,598.476562 C461.140636,598.476562 462.826817,599.114577 463.933594,600.390625 C465.04037,601.666673 465.60026,603.580716 465.613281,606.132812 L465.613281,620 L463.289062,620 L463.289062,606.113281 C463.276042,604.225251 462.875655,602.819015 462.087891,601.894531 C461.300126,600.970047 460.040373,600.507812 458.308594,600.507812 C456.863274,600.507812 455.58399,600.960282 454.470703,601.865234 C453.357416,602.770187 452.533857,603.990878 452,605.527344 L452,620 L449.675781,620 L449.675781,590 L452,590 L452,602.441406 Z M484.96875,620 C484.734374,619.335934 484.584636,618.352871 484.519531,617.050781 C483.699215,618.118495 482.654303,618.942054 481.384766,619.521484 C480.115228,620.100914 478.77084,620.390625 477.351562,620.390625 C475.320302,620.390625 473.676439,619.824224 472.419922,618.691406 C471.163405,617.558588 470.535156,616.126311 470.535156,614.394531 C470.535156,612.337229 471.391267,610.709641 473.103516,609.511719 C474.815764,608.313796 477.201808,607.714844 480.261719,607.714844 L484.5,607.714844 L484.5,605.3125 C484.5,603.802076 484.03451,602.613937 483.103516,601.748047 C482.172521,600.882157 480.815113,600.449219 479.03125,600.449219 C477.403638,600.449219 476.055995,600.865881 474.988281,601.699219 C473.920568,602.532556 473.386719,603.53515 473.386719,604.707031 L471.042969,604.6875 C471.042969,603.007804 471.824211,601.552741 473.386719,600.322266 C474.949227,599.091791 476.86978,598.476562 479.148438,598.476562 C481.50522,598.476562 483.363925,599.065749 484.724609,600.244141 C486.085293,601.422532 486.785156,603.066396 486.824219,605.175781 L486.824219,615.175781 C486.824219,617.220062 487.03906,618.749995 487.46875,619.765625 L487.46875,620 L484.96875,620 Z M477.625,618.320312 C479.187508,618.320312 480.583978,617.942712 481.814453,617.1875 C483.044928,616.432288 483.940101,615.423183 484.5,614.160156 L484.5,609.511719 L480.320312,609.511719 C477.989572,609.537761 476.166673,609.964189 474.851562,610.791016 C473.536452,611.617843 472.878906,612.753899 472.878906,614.199219 C472.878906,615.384121 473.318355,616.367184 474.197266,617.148438 C475.076176,617.929691 476.218743,618.320312 477.625,618.320312 L477.625,618.320312 Z M505.710938,614.628906 C505.710938,613.470046 505.245447,612.539066 504.314453,611.835938 C503.383459,611.132809 501.980478,610.582684 500.105469,610.185547 C498.230459,609.788409 496.775396,609.332685 495.740234,608.818359 C494.705073,608.304034 493.936851,607.675785 493.435547,606.933594 C492.934242,606.191403 492.683594,605.292974 492.683594,604.238281 C492.683594,602.571606 493.380201,601.194667 494.773438,600.107422 C496.166674,599.020177 497.95051,598.476562 500.125,598.476562 C502.481783,598.476562 504.37304,599.059239 505.798828,600.224609 C507.224617,601.38998 507.9375,602.910147 507.9375,604.785156 L505.59375,604.785156 C505.59375,603.548171 505.076177,602.519535 504.041016,601.699219 C503.005854,600.878902 501.700529,600.46875 500.125,600.46875 C498.588534,600.46875 497.354822,600.810543 496.423828,601.494141 C495.492834,602.177738 495.027344,603.066401 495.027344,604.160156 C495.027344,605.214849 495.41471,606.031898 496.189453,606.611328 C496.964197,607.190758 498.376943,607.721352 500.427734,608.203125 C502.478526,608.684898 504.014969,609.199216 505.037109,609.746094 C506.05925,610.292971 506.817706,610.950517 507.3125,611.71875 C507.807294,612.486983 508.054688,613.417963 508.054688,614.511719 C508.054688,616.295582 507.335294,617.721349 505.896484,618.789062 C504.457675,619.856776 502.579439,620.390625 500.261719,620.390625 C497.800769,620.390625 495.805346,619.794928 494.275391,618.603516 C492.745435,617.412103 491.980469,615.904957 491.980469,614.082031 L494.324219,614.082031 C494.415365,615.449226 494.991531,616.513668 496.052734,617.275391 C497.113938,618.037113 498.516918,618.417969 500.261719,618.417969 C501.889331,618.417969 503.204422,618.059899 504.207031,617.34375 C505.20964,616.627601 505.710938,615.722662 505.710938,614.628906 L505.710938,614.628906 Z M521.492188,620.390625 C519.695304,620.390625 518.070971,619.947921 516.619141,619.0625 C515.16731,618.177079 514.037764,616.943367 513.230469,615.361328 C512.423173,613.779289 512.019531,612.005218 512.019531,610.039062 L512.019531,609.199219 C512.019531,607.167959 512.413408,605.33855 513.201172,603.710938 C513.988936,602.083325 515.08593,600.804041 516.492188,599.873047 C517.898445,598.942053 519.421867,598.476562 521.0625,598.476562 C523.627617,598.476562 525.662102,599.352205 527.166016,601.103516 C528.669929,602.854826 529.421875,605.247381 529.421875,608.28125 L529.421875,609.589844 L514.34375,609.589844 L514.34375,610.039062 C514.34375,612.434908 515.030592,614.430331 516.404297,616.025391 C517.778002,617.620451 519.5065,618.417969 521.589844,618.417969 C522.83985,618.417969 523.943355,618.190106 524.900391,617.734375 C525.857427,617.278644 526.726559,616.549484 527.507812,615.546875 L528.972656,616.660156 C527.253898,619.147148 524.760433,620.390625 521.492188,620.390625 L521.492188,620.390625 Z M521.0625,600.46875 C519.304679,600.46875 517.823574,601.113275 516.619141,602.402344 C515.414708,603.691413 514.682293,605.423166 514.421875,607.597656 L527.097656,607.597656 L527.097656,607.34375 C527.032552,605.31249 526.45313,603.658861 525.359375,602.382812 C524.26562,601.106764 522.833342,600.46875 521.0625,600.46875 L521.0625,600.46875 Z M554.207031,620 L551.863281,620 L551.863281,594.375 L544.128906,597.246094 L544.128906,595.058594 L553.816406,591.464844 L554.207031,591.464844 L554.207031,620 Z M565.300781,618.59375 C565.300781,618.138019 565.447264,617.750653 565.740234,617.431641 C566.033205,617.112629 566.440102,616.953125 566.960938,616.953125 C567.481773,616.953125 567.891926,617.112629 568.191406,617.431641 C568.490887,617.750653 568.640625,618.138019 568.640625,618.59375 C568.640625,619.049481 568.490887,619.423827 568.191406,619.716797 C567.891926,620.009767 567.481773,620.15625 566.960938,620.15625 C566.440102,620.15625 566.033205,620.009767 565.740234,619.716797 C565.447264,619.423827 565.300781,619.049481 565.300781,618.59375 L565.300781,618.59375 Z M565.339844,600.566406 C565.339844,600.110675 565.486327,599.723309 565.779297,599.404297 C566.072267,599.085285 566.479164,598.925781 567,598.925781 C567.520836,598.925781 567.930988,599.085285 568.230469,599.404297 C568.529949,599.723309 568.679688,600.110675 568.679688,600.566406 C568.679688,601.022138 568.529949,601.396483 568.230469,601.689453 C567.930988,601.982423 567.520836,602.128906 567,602.128906 C566.479164,602.128906 566.072267,601.982423 565.779297,601.689453 C565.486327,601.396483 565.339844,601.022138 565.339844,600.566406 L565.339844,600.566406 Z M434.167969,663.484375 L434.324219,664.089844 L434.5,663.484375 L443.445312,638.5625 L446.082031,638.5625 L435.496094,667 L433.191406,667 L422.605469,638.5625 L425.222656,638.5625 L434.167969,663.484375 Z M452.332031,667 L449.988281,667 L449.988281,645.867188 L452.332031,645.867188 L452.332031,667 Z M449.578125,639.753906 C449.578125,639.311196 449.721353,638.93685 450.007812,638.630859 C450.294272,638.324868 450.684893,638.171875 451.179688,638.171875 C451.674482,638.171875 452.068358,638.324868 452.361328,638.630859 C452.654298,638.93685 452.800781,639.311196 452.800781,639.753906 C452.800781,640.196617 452.654298,640.567707 452.361328,640.867188 C452.068358,641.166668 451.674482,641.316406 451.179688,641.316406 C450.684893,641.316406 450.294272,641.166668 450.007812,640.867188 C449.721353,640.567707 449.578125,640.196617 449.578125,639.753906 L449.578125,639.753906 Z M471.335938,661.628906 C471.335938,660.470046 470.870447,659.539066 469.939453,658.835938 C469.008459,658.132809 467.605478,657.582684 465.730469,657.185547 C463.855459,656.788409 462.400396,656.332685 461.365234,655.818359 C460.330073,655.304034 459.561851,654.675785 459.060547,653.933594 C458.559242,653.191403 458.308594,652.292974 458.308594,651.238281 C458.308594,649.571606 459.005201,648.194667 460.398438,647.107422 C461.791674,646.020177 463.57551,645.476562 465.75,645.476562 C468.106783,645.476562 469.99804,646.059239 471.423828,647.224609 C472.849617,648.38998 473.5625,649.910147 473.5625,651.785156 L471.21875,651.785156 C471.21875,650.548171 470.701177,649.519535 469.666016,648.699219 C468.630854,647.878902 467.325529,647.46875 465.75,647.46875 C464.213534,647.46875 462.979822,647.810543 462.048828,648.494141 C461.117834,649.177738 460.652344,650.066401 460.652344,651.160156 C460.652344,652.214849 461.03971,653.031898 461.814453,653.611328 C462.589197,654.190758 464.001943,654.721352 466.052734,655.203125 C468.103526,655.684898 469.639969,656.199216 470.662109,656.746094 C471.68425,657.292971 472.442706,657.950517 472.9375,658.71875 C473.432294,659.486983 473.679688,660.417963 473.679688,661.511719 C473.679688,663.295582 472.960294,664.721349 471.521484,665.789062 C470.082675,666.856776 468.204439,667.390625 465.886719,667.390625 C463.425769,667.390625 461.430346,666.794928 459.900391,665.603516 C458.370435,664.412103 457.605469,662.904957 457.605469,661.082031 L459.949219,661.082031 C460.040365,662.449226 460.616531,663.513668 461.677734,664.275391 C462.738938,665.037113 464.141918,665.417969 465.886719,665.417969 C467.514331,665.417969 468.829422,665.059899 469.832031,664.34375 C470.83464,663.627601 471.335938,662.722662 471.335938,661.628906 L471.335938,661.628906 Z M492.527344,664.324219 C491.121087,666.3685 488.875015,667.390625 485.789062,667.390625 C483.536447,667.390625 481.824225,666.736335 480.652344,665.427734 C479.480463,664.119134 478.881511,662.182304 478.855469,659.617188 L478.855469,645.867188 L481.179688,645.867188 L481.179688,659.324219 C481.179688,663.347676 482.807275,665.359375 486.0625,665.359375 C489.447934,665.359375 491.589839,663.959649 492.488281,661.160156 L492.488281,645.867188 L494.832031,645.867188 L494.832031,667 L492.566406,667 L492.527344,664.324219 Z M514.246094,667 C514.011718,666.335934 513.861979,665.352871 513.796875,664.050781 C512.976558,665.118495 511.931647,665.942054 510.662109,666.521484 C509.392572,667.100914 508.048184,667.390625 506.628906,667.390625 C504.597646,667.390625 502.953782,666.824224 501.697266,665.691406 C500.440749,664.558588 499.8125,663.126311 499.8125,661.394531 C499.8125,659.337229 500.668611,657.709641 502.380859,656.511719 C504.093108,655.313796 506.479151,654.714844 509.539062,654.714844 L513.777344,654.714844 L513.777344,652.3125 C513.777344,650.802076 513.311854,649.613937 512.380859,648.748047 C511.449865,647.882157 510.092457,647.449219 508.308594,647.449219 C506.680981,647.449219 505.333339,647.865881 504.265625,648.699219 C503.197911,649.532556 502.664062,650.53515 502.664062,651.707031 L500.320312,651.6875 C500.320312,650.007804 501.101555,648.552741 502.664062,647.322266 C504.22657,646.091791 506.147124,645.476562 508.425781,645.476562 C510.782564,645.476562 512.641269,646.065749 514.001953,647.244141 C515.362637,648.422532 516.0625,650.066396 516.101562,652.175781 L516.101562,662.175781 C516.101562,664.220062 516.316404,665.749995 516.746094,666.765625 L516.746094,667 L514.246094,667 Z M506.902344,665.320312 C508.464852,665.320312 509.861322,664.942712 511.091797,664.1875 C512.322272,663.432288 513.217445,662.423183 513.777344,661.160156 L513.777344,656.511719 L509.597656,656.511719 C507.266915,656.537761 505.444017,656.964189 504.128906,657.791016 C502.813796,658.617843 502.15625,659.753899 502.15625,661.199219 C502.15625,662.384121 502.595699,663.367184 503.474609,664.148438 C504.35352,664.929691 505.496087,665.320312 506.902344,665.320312 L506.902344,665.320312 Z M524.949219,667 L522.605469,667 L522.605469,637 L524.949219,637 L524.949219,667 Z M557.664062,660.007812 C557.664062,658.432284 557.110683,657.185551 556.003906,656.267578 C554.89713,655.349605 552.872411,654.477218 549.929688,653.650391 C546.986964,652.823564 544.838548,651.92188 543.484375,650.945312 C541.557282,649.565097 540.59375,647.75522 540.59375,645.515625 C540.59375,643.341135 541.488923,641.573575 543.279297,640.212891 C545.06967,638.852207 547.358059,638.171875 550.144531,638.171875 C552.032562,638.171875 553.721998,638.536455 555.212891,639.265625 C556.703783,639.994795 557.859371,641.01041 558.679688,642.3125 C559.500004,643.61459 559.910156,645.066398 559.910156,646.667969 L557.488281,646.667969 C557.488281,644.727855 556.824225,643.168626 555.496094,641.990234 C554.167962,640.811843 552.384126,640.222656 550.144531,640.222656 C547.970041,640.222656 546.238288,640.707677 544.949219,641.677734 C543.66015,642.647791 543.015625,643.914055 543.015625,645.476562 C543.015625,646.921882 543.595046,648.100256 544.753906,649.011719 C545.912766,649.923182 547.768216,650.72721 550.320312,651.423828 C552.872409,652.120446 554.805983,652.843095 556.121094,653.591797 C557.436204,654.340499 558.425778,655.235672 559.089844,656.277344 C559.75391,657.319016 560.085938,658.549472 560.085938,659.96875 C560.085938,662.208345 559.190764,664.005202 557.400391,665.359375 C555.610017,666.713548 553.250015,667.390625 550.320312,667.390625 C548.315094,667.390625 546.47592,667.032556 544.802734,666.316406 C543.129549,665.600257 541.86003,664.597663 540.994141,663.308594 C540.128251,662.019525 539.695312,660.541675 539.695312,658.875 L542.097656,658.875 C542.097656,660.880218 542.846347,662.462234 544.34375,663.621094 C545.841153,664.779954 547.833321,665.359375 550.320312,665.359375 C552.533865,665.359375 554.311191,664.871099 555.652344,663.894531 C556.993496,662.917964 557.664062,661.622404 557.664062,660.007812 L557.664062,660.007812 Z M572.898438,667.390625 C571.101554,667.390625 569.477221,666.947921 568.025391,666.0625 C566.57356,665.177079 565.444014,663.943367 564.636719,662.361328 C563.829423,660.779289 563.425781,659.005218 563.425781,657.039062 L563.425781,656.199219 C563.425781,654.167959 563.819658,652.33855 564.607422,650.710938 C565.395186,649.083325 566.49218,647.804041 567.898438,646.873047 C569.304695,645.942053 570.828117,645.476562 572.46875,645.476562 C575.033867,645.476562 577.068352,646.352205 578.572266,648.103516 C580.076179,649.854826 580.828125,652.247381 580.828125,655.28125 L580.828125,656.589844 L565.75,656.589844 L565.75,657.039062 C565.75,659.434908 566.436842,661.430331 567.810547,663.025391 C569.184252,664.620451 570.91275,665.417969 572.996094,665.417969 C574.2461,665.417969 575.349605,665.190106 576.306641,664.734375 C577.263677,664.278644 578.132809,663.549484 578.914062,662.546875 L580.378906,663.660156 C578.660148,666.147148 576.166683,667.390625 572.898438,667.390625 L572.898438,667.390625 Z M572.46875,647.46875 C570.710929,647.46875 569.229824,648.113275 568.025391,649.402344 C566.820958,650.691413 566.088543,652.423166 565.828125,654.597656 L578.503906,654.597656 L578.503906,654.34375 C578.438802,652.31249 577.85938,650.658861 576.765625,649.382812 C575.67187,648.106764 574.239592,647.46875 572.46875,647.46875 L572.46875,647.46875 Z M595.144531,647.859375 C594.649737,647.768229 594.122399,647.722656 593.5625,647.722656 C592.104159,647.722656 590.870448,648.129553 589.861328,648.943359 C588.852208,649.757166 588.132815,650.938794 587.703125,652.488281 L587.703125,667 L585.378906,667 L585.378906,645.867188 L587.664062,645.867188 L587.703125,649.226562 C588.94011,646.72655 590.925768,645.476562 593.660156,645.476562 C594.311201,645.476562 594.825519,645.561197 595.203125,645.730469 L595.144531,647.859375 Z M605.417969,663.777344 L611.84375,645.867188 L614.246094,645.867188 L606.355469,667 L604.460938,667 L596.53125,645.867188 L598.933594,645.867188 L605.417969,663.777344 Z M616.785156,656.121094 C616.785156,654.089834 617.179033,652.260425 617.966797,650.632812 C618.754561,649.0052 619.867831,647.738937 621.306641,646.833984 C622.74545,645.929032 624.376293,645.476562 626.199219,645.476562 C629.011733,645.476562 631.290356,646.462881 633.035156,648.435547 C634.779957,650.408213 635.652344,653.022119 635.652344,656.277344 L635.652344,656.765625 C635.652344,658.809906 635.258467,660.64908 634.470703,662.283203 C633.682939,663.917326 632.572924,665.177079 631.140625,666.0625 C629.708326,666.947921 628.074228,667.390625 626.238281,667.390625 C623.438788,667.390625 621.16342,666.404307 619.412109,664.431641 C617.660799,662.458975 616.785156,659.845068 616.785156,656.589844 L616.785156,656.121094 Z M619.128906,656.765625 C619.128906,659.291679 619.783197,661.365226 621.091797,662.986328 C622.400397,664.60743 624.115875,665.417969 626.238281,665.417969 C628.347667,665.417969 630.056634,664.60743 631.365234,662.986328 C632.673835,661.365226 633.328125,659.226576 633.328125,656.570312 L633.328125,656.121094 C633.328125,654.506502 633.028649,653.028653 632.429688,651.6875 C631.830726,650.346347 630.990891,649.307946 629.910156,648.572266 C628.829422,647.836585 627.592455,647.46875 626.199219,647.46875 C624.115875,647.46875 622.416673,648.285799 621.101562,649.919922 C619.786452,651.554045 619.128906,653.692695 619.128906,656.335938 L619.128906,656.765625 Z M643.09375,667 L640.75,667 L640.75,645.867188 L643.09375,645.867188 L643.09375,667 Z M640.339844,639.753906 C640.339844,639.311196 640.483071,638.93685 640.769531,638.630859 C641.055991,638.324868 641.446612,638.171875 641.941406,638.171875 C642.4362,638.171875 642.830077,638.324868 643.123047,638.630859 C643.416017,638.93685 643.5625,639.311196 643.5625,639.753906 C643.5625,640.196617 643.416017,640.567707 643.123047,640.867188 C642.830077,641.166668 642.4362,641.316406 641.941406,641.316406 C641.446612,641.316406 641.055991,641.166668 640.769531,640.867188 C640.483071,640.567707 640.339844,640.196617 640.339844,639.753906 L640.339844,639.753906 Z M651.667969,645.867188 L651.746094,649.480469 C652.540369,648.178379 653.529942,647.18555 654.714844,646.501953 C655.899746,645.818356 657.208326,645.476562 658.640625,645.476562 C660.906261,645.476562 662.592442,646.114577 663.699219,647.390625 C664.805995,648.666673 665.365885,650.580716 665.378906,653.132812 L665.378906,667 L663.054688,667 L663.054688,653.113281 C663.041667,651.225251 662.64128,649.819015 661.853516,648.894531 C661.065751,647.970047 659.805998,647.507812 658.074219,647.507812 C656.628899,647.507812 655.349615,647.960282 654.236328,648.865234 C653.123041,649.770187 652.299482,650.990878 651.765625,652.527344 L651.765625,667 L649.441406,667 L649.441406,645.867188 L651.667969,645.867188 Z M670.476562,656.238281 C670.476562,652.930973 671.208977,650.310557 672.673828,648.376953 C674.138679,646.44335 676.127592,645.476562 678.640625,645.476562 C681.518244,645.476562 683.705722,646.622384 685.203125,648.914062 L685.320312,645.867188 L687.507812,645.867188 L687.507812,666.570312 C687.507812,669.29168 686.746101,671.446607 685.222656,673.035156 C683.699211,674.623706 681.63543,675.417969 679.03125,675.417969 C677.559888,675.417969 676.156908,675.089196 674.822266,674.431641 C673.487624,673.774085 672.436202,672.898443 671.667969,671.804688 L672.976562,670.398438 C674.630217,672.429698 676.596343,673.445312 678.875,673.445312 C680.828135,673.445312 682.351557,672.869146 683.445312,671.716797 C684.539068,670.564447 685.105469,668.966156 685.144531,666.921875 L685.144531,664.265625 C683.647128,666.348969 681.46616,667.390625 678.601562,667.390625 C676.153634,667.390625 674.187507,666.414072 672.703125,664.460938 C671.218743,662.507803 670.476562,659.87111 670.476562,656.550781 L670.476562,656.238281 Z M672.839844,656.648438 C672.839844,659.343763 673.380203,661.469393 674.460938,663.025391 C675.541672,664.581388 677.065094,665.359375 679.03125,665.359375 C681.908869,665.359375 683.946609,664.070325 685.144531,661.492188 L685.144531,651.667969 C684.597654,650.313795 683.809901,649.281905 682.78125,648.572266 C681.752599,647.862627 680.515632,647.507812 679.070312,647.507812 C677.104157,647.507812 675.574224,648.279289 674.480469,649.822266 C673.386713,651.365242 672.839844,653.64061 672.839844,656.648438 L672.839844,656.648438 Z" id="Phase-1:-Visual-Serv" fill="#424242"></path>
            <path d="M588.996094,116.417969 L588.996094,128 L586.59375,128 L586.59375,99.5625 L596.28125,99.5625 C599.236994,99.5625 601.570955,100.317701 603.283203,101.828125 C604.995451,103.338549 605.851562,105.415351 605.851562,108.058594 C605.851562,110.727878 605.028003,112.788404 603.380859,114.240234 C601.733716,115.692065 599.347672,116.417969 596.222656,116.417969 L588.996094,116.417969 Z M588.996094,114.386719 L596.28125,114.386719 C598.611991,114.386719 600.389317,113.833339 601.613281,112.726562 C602.837246,111.619786 603.449219,110.076833 603.449219,108.097656 C603.449219,106.131501 602.840501,104.565761 601.623047,103.400391 C600.405593,102.23502 598.677095,101.639323 596.4375,101.613281 L588.996094,101.613281 L588.996094,114.386719 Z M613,110.441406 C613.768233,109.178379 614.751296,108.201826 615.949219,107.511719 C617.147141,106.821611 618.455722,106.476562 619.875,106.476562 C622.140636,106.476562 623.826817,107.114577 624.933594,108.390625 C626.04037,109.666673 626.60026,111.580716 626.613281,114.132812 L626.613281,128 L624.289062,128 L624.289062,114.113281 C624.276042,112.225251 623.875655,110.819015 623.087891,109.894531 C622.300126,108.970047 621.040373,108.507812 619.308594,108.507812 C617.863274,108.507812 616.58399,108.960282 615.470703,109.865234 C614.357416,110.770187 613.533857,111.990878 613,113.527344 L613,128 L610.675781,128 L610.675781,98 L613,98 L613,110.441406 Z M645.96875,128 C645.734374,127.335934 645.584636,126.352871 645.519531,125.050781 C644.699215,126.118495 643.654303,126.942054 642.384766,127.521484 C641.115228,128.100914 639.77084,128.390625 638.351562,128.390625 C636.320302,128.390625 634.676439,127.824224 633.419922,126.691406 C632.163405,125.558588 631.535156,124.126311 631.535156,122.394531 C631.535156,120.337229 632.391267,118.709641 634.103516,117.511719 C635.815764,116.313796 638.201808,115.714844 641.261719,115.714844 L645.5,115.714844 L645.5,113.3125 C645.5,111.802076 645.03451,110.613937 644.103516,109.748047 C643.172521,108.882157 641.815113,108.449219 640.03125,108.449219 C638.403638,108.449219 637.055995,108.865881 635.988281,109.699219 C634.920568,110.532556 634.386719,111.53515 634.386719,112.707031 L632.042969,112.6875 C632.042969,111.007804 632.824211,109.552741 634.386719,108.322266 C635.949227,107.091791 637.86978,106.476562 640.148438,106.476562 C642.50522,106.476562 644.363925,107.065749 645.724609,108.244141 C647.085293,109.422532 647.785156,111.066396 647.824219,113.175781 L647.824219,123.175781 C647.824219,125.220062 648.03906,126.749995 648.46875,127.765625 L648.46875,128 L645.96875,128 Z M638.625,126.320312 C640.187508,126.320312 641.583978,125.942712 642.814453,125.1875 C644.044928,124.432288 644.940101,123.423183 645.5,122.160156 L645.5,117.511719 L641.320312,117.511719 C638.989572,117.537761 637.166673,117.964189 635.851562,118.791016 C634.536452,119.617843 633.878906,120.753899 633.878906,122.199219 C633.878906,123.384121 634.318355,124.367184 635.197266,125.148438 C636.076176,125.929691 637.218743,126.320312 638.625,126.320312 L638.625,126.320312 Z M666.710938,122.628906 C666.710938,121.470046 666.245447,120.539066 665.314453,119.835938 C664.383459,119.132809 662.980478,118.582684 661.105469,118.185547 C659.230459,117.788409 657.775396,117.332685 656.740234,116.818359 C655.705073,116.304034 654.936851,115.675785 654.435547,114.933594 C653.934242,114.191403 653.683594,113.292974 653.683594,112.238281 C653.683594,110.571606 654.380201,109.194667 655.773438,108.107422 C657.166674,107.020177 658.95051,106.476562 661.125,106.476562 C663.481783,106.476562 665.37304,107.059239 666.798828,108.224609 C668.224617,109.38998 668.9375,110.910147 668.9375,112.785156 L666.59375,112.785156 C666.59375,111.548171 666.076177,110.519535 665.041016,109.699219 C664.005854,108.878902 662.700529,108.46875 661.125,108.46875 C659.588534,108.46875 658.354822,108.810543 657.423828,109.494141 C656.492834,110.177738 656.027344,111.066401 656.027344,112.160156 C656.027344,113.214849 656.41471,114.031898 657.189453,114.611328 C657.964197,115.190758 659.376943,115.721352 661.427734,116.203125 C663.478526,116.684898 665.014969,117.199216 666.037109,117.746094 C667.05925,118.292971 667.817706,118.950517 668.3125,119.71875 C668.807294,120.486983 669.054688,121.417963 669.054688,122.511719 C669.054688,124.295582 668.335294,125.721349 666.896484,126.789062 C665.457675,127.856776 663.579439,128.390625 661.261719,128.390625 C658.800769,128.390625 656.805346,127.794928 655.275391,126.603516 C653.745435,125.412103 652.980469,123.904957 652.980469,122.082031 L655.324219,122.082031 C655.415365,123.449226 655.991531,124.513668 657.052734,125.275391 C658.113938,126.037113 659.516918,126.417969 661.261719,126.417969 C662.889331,126.417969 664.204422,126.059899 665.207031,125.34375 C666.20964,124.627601 666.710938,123.722662 666.710938,122.628906 L666.710938,122.628906 Z M682.492188,128.390625 C680.695304,128.390625 679.070971,127.947921 677.619141,127.0625 C676.16731,126.177079 675.037764,124.943367 674.230469,123.361328 C673.423173,121.779289 673.019531,120.005218 673.019531,118.039062 L673.019531,117.199219 C673.019531,115.167959 673.413408,113.33855 674.201172,111.710938 C674.988936,110.083325 676.08593,108.804041 677.492188,107.873047 C678.898445,106.942053 680.421867,106.476562 682.0625,106.476562 C684.627617,106.476562 686.662102,107.352205 688.166016,109.103516 C689.669929,110.854826 690.421875,113.247381 690.421875,116.28125 L690.421875,117.589844 L675.34375,117.589844 L675.34375,118.039062 C675.34375,120.434908 676.030592,122.430331 677.404297,124.025391 C678.778002,125.620451 680.5065,126.417969 682.589844,126.417969 C683.83985,126.417969 684.943355,126.190106 685.900391,125.734375 C686.857427,125.278644 687.726559,124.549484 688.507812,123.546875 L689.972656,124.660156 C688.253898,127.147148 685.760433,128.390625 682.492188,128.390625 L682.492188,128.390625 Z M682.0625,108.46875 C680.304679,108.46875 678.823574,109.113275 677.619141,110.402344 C676.414708,111.691413 675.682293,113.423166 675.421875,115.597656 L688.097656,115.597656 L688.097656,115.34375 C688.032552,113.31249 687.45313,111.658861 686.359375,110.382812 C685.26562,109.106764 683.833342,108.46875 682.0625,108.46875 L682.0625,108.46875 Z M709.523438,112.511719 L711.945312,112.511719 C713.286465,112.511719 714.458328,112.274091 715.460938,111.798828 C716.463547,111.323565 717.228513,110.67253 717.755859,109.845703 C718.283206,109.018876 718.546875,108.06511 718.546875,106.984375 C718.546875,105.161449 718.032557,103.735682 717.003906,102.707031 C715.975255,101.67838 714.497405,101.164062 712.570312,101.164062 C710.747387,101.164062 709.253261,101.701167 708.087891,102.775391 C706.92252,103.849615 706.339844,105.265616 706.339844,107.023438 L703.996094,107.023438 C703.996094,105.552076 704.367184,104.207688 705.109375,102.990234 C705.851566,101.77278 706.880202,100.832035 708.195312,100.167969 C709.510423,99.5039029 710.968742,99.171875 712.570312,99.171875 C715.14845,99.171875 717.17968,99.874993 718.664062,101.28125 C720.148445,102.687507 720.890625,104.614571 720.890625,107.0625 C720.890625,108.429694 720.457687,109.689447 719.591797,110.841797 C718.725907,111.994146 717.537768,112.856768 716.027344,113.429688 C717.798186,113.924482 719.139318,114.774083 720.050781,115.978516 C720.962244,117.182949 721.417969,118.618481 721.417969,120.285156 C721.417969,122.720064 720.623706,124.67968 719.035156,126.164062 C717.446607,127.648445 715.324232,128.390625 712.667969,128.390625 C710.975252,128.390625 709.422533,128.052087 708.009766,127.375 C706.596998,126.697913 705.503259,125.750657 704.728516,124.533203 C703.953772,123.315749 703.566406,121.899748 703.566406,120.285156 L705.910156,120.285156 C705.910156,122.095061 706.54166,123.569656 707.804688,124.708984 C709.067715,125.848313 710.688792,126.417969 712.667969,126.417969 C714.686208,126.417969 716.258458,125.900396 717.384766,124.865234 C718.511073,123.830073 719.074219,122.329437 719.074219,120.363281 C719.074219,118.46223 718.465501,117.010422 717.248047,116.007812 C716.030593,115.005203 714.236991,114.503906 711.867188,114.503906 L709.523438,114.503906 L709.523438,112.511719 Z M726.300781,126.59375 C726.300781,126.138019 726.447264,125.750653 726.740234,125.431641 C727.033205,125.112629 727.440102,124.953125 727.960938,124.953125 C728.481773,124.953125 728.891926,125.112629 729.191406,125.431641 C729.490887,125.750653 729.640625,126.138019 729.640625,126.59375 C729.640625,127.049481 729.490887,127.423827 729.191406,127.716797 C728.891926,128.009767 728.481773,128.15625 727.960938,128.15625 C727.440102,128.15625 727.033205,128.009767 726.740234,127.716797 C726.447264,127.423827 726.300781,127.049481 726.300781,126.59375 L726.300781,126.59375 Z M726.339844,108.566406 C726.339844,108.110675 726.486327,107.723309 726.779297,107.404297 C727.072267,107.085285 727.479164,106.925781 728,106.925781 C728.520836,106.925781 728.930988,107.085285 729.230469,107.404297 C729.529949,107.723309 729.679688,108.110675 729.679688,108.566406 C729.679688,109.022138 729.529949,109.396483 729.230469,109.689453 C728.930988,109.982423 728.520836,110.128906 728,110.128906 C727.479164,110.128906 727.072267,109.982423 726.779297,109.689453 C726.486327,109.396483 726.339844,109.022138 726.339844,108.566406 L726.339844,108.566406 Z M591.847656,167.324219 L592.726562,171.738281 L593.800781,167.519531 L599.972656,146.5625 L602.140625,146.5625 L608.234375,167.519531 L609.289062,171.777344 L610.226562,167.324219 L615.363281,146.5625 L617.824219,146.5625 L610.539062,175 L608.234375,175 L601.789062,152.753906 L601.066406,149.941406 L600.363281,152.753906 L593.761719,175 L591.457031,175 L584.191406,146.5625 L586.652344,146.5625 L591.847656,167.324219 Z M635.246094,175 C635.011718,174.335934 634.861979,173.352871 634.796875,172.050781 C633.976558,173.118495 632.931647,173.942054 631.662109,174.521484 C630.392572,175.100914 629.048184,175.390625 627.628906,175.390625 C625.597646,175.390625 623.953782,174.824224 622.697266,173.691406 C621.440749,172.558588 620.8125,171.126311 620.8125,169.394531 C620.8125,167.337229 621.668611,165.709641 623.380859,164.511719 C625.093108,163.313796 627.479151,162.714844 630.539062,162.714844 L634.777344,162.714844 L634.777344,160.3125 C634.777344,158.802076 634.311854,157.613937 633.380859,156.748047 C632.449865,155.882157 631.092457,155.449219 629.308594,155.449219 C627.680981,155.449219 626.333339,155.865881 625.265625,156.699219 C624.197911,157.532556 623.664062,158.53515 623.664062,159.707031 L621.320312,159.6875 C621.320312,158.007804 622.101555,156.552741 623.664062,155.322266 C625.22657,154.091791 627.147124,153.476562 629.425781,153.476562 C631.782564,153.476562 633.641269,154.065749 635.001953,155.244141 C636.362637,156.422532 637.0625,158.066396 637.101562,160.175781 L637.101562,170.175781 C637.101562,172.220062 637.316404,173.749995 637.746094,174.765625 L637.746094,175 L635.246094,175 Z M627.902344,173.320312 C629.464852,173.320312 630.861322,172.942712 632.091797,172.1875 C633.322272,171.432288 634.217445,170.423183 634.777344,169.160156 L634.777344,164.511719 L630.597656,164.511719 C628.266915,164.537761 626.444017,164.964189 625.128906,165.791016 C623.813796,166.617843 623.15625,167.753899 623.15625,169.199219 C623.15625,170.384121 623.595699,171.367184 624.474609,172.148438 C625.35352,172.929691 626.496087,173.320312 627.902344,173.320312 L627.902344,173.320312 Z M645.949219,175 L643.605469,175 L643.605469,145 L645.949219,145 L645.949219,175 Z M654.914062,175 L652.570312,175 L652.570312,145 L654.914062,145 L654.914062,175 Z M687.199219,161.71875 L673.9375,161.71875 L673.9375,175 L671.535156,175 L671.535156,146.5625 L689.152344,146.5625 L689.152344,148.613281 L673.9375,148.613281 L673.9375,159.667969 L687.199219,159.667969 L687.199219,161.71875 Z M692.199219,164.121094 C692.199219,162.089834 692.593095,160.260425 693.380859,158.632812 C694.168624,157.0052 695.281894,155.738937 696.720703,154.833984 C698.159512,153.929032 699.790355,153.476562 701.613281,153.476562 C704.425795,153.476562 706.704418,154.462881 708.449219,156.435547 C710.194019,158.408213 711.066406,161.022119 711.066406,164.277344 L711.066406,164.765625 C711.066406,166.809906 710.67253,168.64908 709.884766,170.283203 C709.097001,171.917326 707.986986,173.177079 706.554688,174.0625 C705.122389,174.947921 703.48829,175.390625 701.652344,175.390625 C698.852851,175.390625 696.577483,174.404307 694.826172,172.431641 C693.074861,170.458975 692.199219,167.845068 692.199219,164.589844 L692.199219,164.121094 Z M694.542969,164.765625 C694.542969,167.291679 695.197259,169.365226 696.505859,170.986328 C697.81446,172.60743 699.529937,173.417969 701.652344,173.417969 C703.761729,173.417969 705.470697,172.60743 706.779297,170.986328 C708.087897,169.365226 708.742188,167.226576 708.742188,164.570312 L708.742188,164.121094 C708.742188,162.506502 708.442711,161.028653 707.84375,159.6875 C707.244789,158.346347 706.404953,157.307946 705.324219,156.572266 C704.243484,155.836585 703.006517,155.46875 701.613281,155.46875 C699.529937,155.46875 697.830736,156.285799 696.515625,157.919922 C695.200514,159.554045 694.542969,161.692695 694.542969,164.335938 L694.542969,164.765625 Z M718.507812,175 L716.164062,175 L716.164062,145 L718.507812,145 L718.507812,175 Z M727.472656,175 L725.128906,175 L725.128906,145 L727.472656,145 L727.472656,175 Z M732.53125,164.121094 C732.53125,162.089834 732.925126,160.260425 733.712891,158.632812 C734.500655,157.0052 735.613925,155.738937 737.052734,154.833984 C738.491544,153.929032 740.122387,153.476562 741.945312,153.476562 C744.757827,153.476562 747.03645,154.462881 748.78125,156.435547 C750.52605,158.408213 751.398438,161.022119 751.398438,164.277344 L751.398438,164.765625 C751.398438,166.809906 751.004561,168.64908 750.216797,170.283203 C749.429033,171.917326 748.319018,173.177079 746.886719,174.0625 C745.45442,174.947921 743.820322,175.390625 741.984375,175.390625 C739.184882,175.390625 736.909514,174.404307 735.158203,172.431641 C733.406892,170.458975 732.53125,167.845068 732.53125,164.589844 L732.53125,164.121094 Z M734.875,164.765625 C734.875,167.291679 735.52929,169.365226 736.837891,170.986328 C738.146491,172.60743 739.861969,173.417969 741.984375,173.417969 C744.093761,173.417969 745.802728,172.60743 747.111328,170.986328 C748.419928,169.365226 749.074219,167.226576 749.074219,164.570312 L749.074219,164.121094 C749.074219,162.506502 748.774743,161.028653 748.175781,159.6875 C747.57682,158.346347 746.736985,157.307946 745.65625,156.572266 C744.575515,155.836585 743.338549,155.46875 741.945312,155.46875 C739.861969,155.46875 738.162767,156.285799 736.847656,157.919922 C735.532546,159.554045 734.875,161.692695 734.875,164.335938 L734.875,164.765625 Z M761.28125,170.136719 L761.632812,171.953125 L762.101562,170.039062 L767.179688,153.867188 L769.171875,153.867188 L774.191406,169.902344 L774.738281,172.128906 L775.1875,170.078125 L779.523438,153.867188 L781.945312,153.867188 L775.792969,175 L773.800781,175 L768.371094,158.242188 L768.117188,157.089844 L767.863281,158.261719 L762.53125,175 L760.539062,175 L754.40625,153.867188 L756.808594,153.867188 L761.28125,170.136719 Z" id="Phase-3:-Wall-Follow" fill="#424242"></path>
            <path d="M274.996094,220.417969 L274.996094,232 L272.59375,232 L272.59375,203.5625 L282.28125,203.5625 C285.236994,203.5625 287.570955,204.317701 289.283203,205.828125 C290.995451,207.338549 291.851562,209.415351 291.851562,212.058594 C291.851562,214.727878 291.028003,216.788404 289.380859,218.240234 C287.733716,219.692065 285.347672,220.417969 282.222656,220.417969 L274.996094,220.417969 Z M274.996094,218.386719 L282.28125,218.386719 C284.611991,218.386719 286.389317,217.833339 287.613281,216.726562 C288.837246,215.619786 289.449219,214.076833 289.449219,212.097656 C289.449219,210.131501 288.840501,208.565761 287.623047,207.400391 C286.405593,206.23502 284.677095,205.639323 282.4375,205.613281 L274.996094,205.613281 L274.996094,218.386719 Z M299,214.441406 C299.768233,213.178379 300.751296,212.201826 301.949219,211.511719 C303.147141,210.821611 304.455722,210.476562 305.875,210.476562 C308.140636,210.476562 309.826817,211.114577 310.933594,212.390625 C312.04037,213.666673 312.60026,215.580716 312.613281,218.132812 L312.613281,232 L310.289062,232 L310.289062,218.113281 C310.276042,216.225251 309.875655,214.819015 309.087891,213.894531 C308.300126,212.970047 307.040373,212.507812 305.308594,212.507812 C303.863274,212.507812 302.58399,212.960282 301.470703,213.865234 C300.357416,214.770187 299.533857,215.990878 299,217.527344 L299,232 L296.675781,232 L296.675781,202 L299,202 L299,214.441406 Z M331.96875,232 C331.734374,231.335934 331.584636,230.352871 331.519531,229.050781 C330.699215,230.118495 329.654303,230.942054 328.384766,231.521484 C327.115228,232.100914 325.77084,232.390625 324.351562,232.390625 C322.320302,232.390625 320.676439,231.824224 319.419922,230.691406 C318.163405,229.558588 317.535156,228.126311 317.535156,226.394531 C317.535156,224.337229 318.391267,222.709641 320.103516,221.511719 C321.815764,220.313796 324.201808,219.714844 327.261719,219.714844 L331.5,219.714844 L331.5,217.3125 C331.5,215.802076 331.03451,214.613937 330.103516,213.748047 C329.172521,212.882157 327.815113,212.449219 326.03125,212.449219 C324.403638,212.449219 323.055995,212.865881 321.988281,213.699219 C320.920568,214.532556 320.386719,215.53515 320.386719,216.707031 L318.042969,216.6875 C318.042969,215.007804 318.824211,213.552741 320.386719,212.322266 C321.949227,211.091791 323.86978,210.476562 326.148438,210.476562 C328.50522,210.476562 330.363925,211.065749 331.724609,212.244141 C333.085293,213.422532 333.785156,215.066396 333.824219,217.175781 L333.824219,227.175781 C333.824219,229.220062 334.03906,230.749995 334.46875,231.765625 L334.46875,232 L331.96875,232 Z M324.625,230.320312 C326.187508,230.320312 327.583978,229.942712 328.814453,229.1875 C330.044928,228.432288 330.940101,227.423183 331.5,226.160156 L331.5,221.511719 L327.320312,221.511719 C324.989572,221.537761 323.166673,221.964189 321.851562,222.791016 C320.536452,223.617843 319.878906,224.753899 319.878906,226.199219 C319.878906,227.384121 320.318355,228.367184 321.197266,229.148438 C322.076176,229.929691 323.218743,230.320312 324.625,230.320312 L324.625,230.320312 Z M352.710938,226.628906 C352.710938,225.470046 352.245447,224.539066 351.314453,223.835938 C350.383459,223.132809 348.980478,222.582684 347.105469,222.185547 C345.230459,221.788409 343.775396,221.332685 342.740234,220.818359 C341.705073,220.304034 340.936851,219.675785 340.435547,218.933594 C339.934242,218.191403 339.683594,217.292974 339.683594,216.238281 C339.683594,214.571606 340.380201,213.194667 341.773438,212.107422 C343.166674,211.020177 344.95051,210.476562 347.125,210.476562 C349.481783,210.476562 351.37304,211.059239 352.798828,212.224609 C354.224617,213.38998 354.9375,214.910147 354.9375,216.785156 L352.59375,216.785156 C352.59375,215.548171 352.076177,214.519535 351.041016,213.699219 C350.005854,212.878902 348.700529,212.46875 347.125,212.46875 C345.588534,212.46875 344.354822,212.810543 343.423828,213.494141 C342.492834,214.177738 342.027344,215.066401 342.027344,216.160156 C342.027344,217.214849 342.41471,218.031898 343.189453,218.611328 C343.964197,219.190758 345.376943,219.721352 347.427734,220.203125 C349.478526,220.684898 351.014969,221.199216 352.037109,221.746094 C353.05925,222.292971 353.817706,222.950517 354.3125,223.71875 C354.807294,224.486983 355.054688,225.417963 355.054688,226.511719 C355.054688,228.295582 354.335294,229.721349 352.896484,230.789062 C351.457675,231.856776 349.579439,232.390625 347.261719,232.390625 C344.800769,232.390625 342.805346,231.794928 341.275391,230.603516 C339.745435,229.412103 338.980469,227.904957 338.980469,226.082031 L341.324219,226.082031 C341.415365,227.449226 341.991531,228.513668 343.052734,229.275391 C344.113938,230.037113 345.516918,230.417969 347.261719,230.417969 C348.889331,230.417969 350.204422,230.059899 351.207031,229.34375 C352.20964,228.627601 352.710938,227.722662 352.710938,226.628906 L352.710938,226.628906 Z M368.492188,232.390625 C366.695304,232.390625 365.070971,231.947921 363.619141,231.0625 C362.16731,230.177079 361.037764,228.943367 360.230469,227.361328 C359.423173,225.779289 359.019531,224.005218 359.019531,222.039062 L359.019531,221.199219 C359.019531,219.167959 359.413408,217.33855 360.201172,215.710938 C360.988936,214.083325 362.08593,212.804041 363.492188,211.873047 C364.898445,210.942053 366.421867,210.476562 368.0625,210.476562 C370.627617,210.476562 372.662102,211.352205 374.166016,213.103516 C375.669929,214.854826 376.421875,217.247381 376.421875,220.28125 L376.421875,221.589844 L361.34375,221.589844 L361.34375,222.039062 C361.34375,224.434908 362.030592,226.430331 363.404297,228.025391 C364.778002,229.620451 366.5065,230.417969 368.589844,230.417969 C369.83985,230.417969 370.943355,230.190106 371.900391,229.734375 C372.857427,229.278644 373.726559,228.549484 374.507812,227.546875 L375.972656,228.660156 C374.253898,231.147148 371.760433,232.390625 368.492188,232.390625 L368.492188,232.390625 Z M368.0625,212.46875 C366.304679,212.46875 364.823574,213.113275 363.619141,214.402344 C362.414708,215.691413 361.682293,217.423166 361.421875,219.597656 L374.097656,219.597656 L374.097656,219.34375 C374.032552,217.31249 373.45313,215.658861 372.359375,214.382812 C371.26562,213.106764 369.833342,212.46875 368.0625,212.46875 L368.0625,212.46875 Z M408.140625,232 L390.328125,232 L390.328125,230.203125 L400.074219,219.148438 C401.68881,217.286449 402.808591,215.750006 403.433594,214.539062 C404.058597,213.328119 404.371094,212.149745 404.371094,211.003906 C404.371094,209.207022 403.843755,207.78451 402.789062,206.736328 C401.73437,205.688146 400.282561,205.164062 398.433594,205.164062 C396.519522,205.164062 394.973313,205.776036 393.794922,207 C392.616531,208.223964 392.027344,209.81249 392.027344,211.765625 L389.703125,211.765625 C389.703125,210.164054 390.06445,208.705736 390.787109,207.390625 C391.509769,206.075514 392.538405,205.043624 393.873047,204.294922 C395.207689,203.54622 396.727856,203.171875 398.433594,203.171875 C401.037773,203.171875 403.072258,203.855462 404.537109,205.222656 C406.00196,206.589851 406.734375,208.451811 406.734375,210.808594 C406.734375,212.136725 406.320968,213.588534 405.494141,215.164062 C404.667314,216.739591 403.21225,218.705717 401.128906,221.0625 L393.199219,230.027344 L408.140625,230.027344 L408.140625,232 Z M412.300781,230.59375 C412.300781,230.138019 412.447264,229.750653 412.740234,229.431641 C413.033205,229.112629 413.440102,228.953125 413.960938,228.953125 C414.481773,228.953125 414.891926,229.112629 415.191406,229.431641 C415.490887,229.750653 415.640625,230.138019 415.640625,230.59375 C415.640625,231.049481 415.490887,231.423827 415.191406,231.716797 C414.891926,232.009767 414.481773,232.15625 413.960938,232.15625 C413.440102,232.15625 413.033205,232.009767 412.740234,231.716797 C412.447264,231.423827 412.300781,231.049481 412.300781,230.59375 L412.300781,230.59375 Z M412.339844,212.566406 C412.339844,212.110675 412.486327,211.723309 412.779297,211.404297 C413.072267,211.085285 413.479164,210.925781 414,210.925781 C414.520836,210.925781 414.930988,211.085285 415.230469,211.404297 C415.529949,211.723309 415.679688,212.110675 415.679688,212.566406 C415.679688,213.022138 415.529949,213.396483 415.230469,213.689453 C414.930988,213.982423 414.520836,214.128906 414,214.128906 C413.479164,214.128906 413.072267,213.982423 412.779297,213.689453 C412.486327,213.396483 412.339844,213.022138 412.339844,212.566406 L412.339844,212.566406 Z M293.765625,279 L291.363281,279 L275.015625,254.664062 L275.015625,279 L272.59375,279 L272.59375,250.5625 L275.015625,250.5625 L291.382812,274.917969 L291.382812,250.5625 L293.765625,250.5625 L293.765625,279 Z M314.039062,276.324219 C312.632805,278.3685 310.386734,279.390625 307.300781,279.390625 C305.048166,279.390625 303.335943,278.736335 302.164062,277.427734 C300.992182,276.119134 300.393229,274.182304 300.367188,271.617188 L300.367188,257.867188 L302.691406,257.867188 L302.691406,271.324219 C302.691406,275.347676 304.318994,277.359375 307.574219,277.359375 C310.959652,277.359375 313.101558,275.959649 314,273.160156 L314,257.867188 L316.34375,257.867188 L316.34375,279 L314.078125,279 L314.039062,276.324219 Z M321.480469,268.238281 C321.480469,264.957015 322.212883,262.343109 323.677734,260.396484 C325.142585,258.44986 327.131498,257.476562 329.644531,257.476562 C332.496108,257.476562 334.670565,258.602853 336.167969,260.855469 L336.167969,249 L338.492188,249 L338.492188,279 L336.304688,279 L336.207031,276.1875 C334.709628,278.322927 332.509129,279.390625 329.605469,279.390625 C327.170561,279.390625 325.20769,278.410817 323.716797,276.451172 C322.225904,274.491527 321.480469,271.845069 321.480469,268.511719 L321.480469,268.238281 Z M323.84375,268.648438 C323.84375,271.343763 324.384109,273.469393 325.464844,275.025391 C326.545578,276.581388 328.069001,277.359375 330.035156,277.359375 C332.912775,277.359375 334.957025,276.089856 336.167969,273.550781 L336.167969,263.628906 C334.957025,260.881497 332.925796,259.507812 330.074219,259.507812 C328.108063,259.507812 326.57813,260.279289 325.484375,261.822266 C324.39062,263.365242 323.84375,265.64061 323.84375,268.648438 L323.84375,268.648438 Z M343.707031,268.238281 C343.707031,264.930973 344.439446,262.310557 345.904297,260.376953 C347.369148,258.44335 349.35806,257.476562 351.871094,257.476562 C354.748712,257.476562 356.93619,258.622384 358.433594,260.914062 L358.550781,257.867188 L360.738281,257.867188 L360.738281,278.570312 C360.738281,281.29168 359.97657,283.446607 358.453125,285.035156 C356.92968,286.623706 354.865898,287.417969 352.261719,287.417969 C350.790357,287.417969 349.387376,287.089196 348.052734,286.431641 C346.718092,285.774085 345.666671,284.898443 344.898438,283.804688 L346.207031,282.398438 C347.860685,284.429698 349.826812,285.445312 352.105469,285.445312 C354.058604,285.445312 355.582026,284.869146 356.675781,283.716797 C357.769537,282.564447 358.335937,280.966156 358.375,278.921875 L358.375,276.265625 C356.877597,278.348969 354.696629,279.390625 351.832031,279.390625 C349.384102,279.390625 347.417976,278.414072 345.933594,276.460938 C344.449211,274.507803 343.707031,271.87111 343.707031,268.550781 L343.707031,268.238281 Z M346.070312,268.648438 C346.070312,271.343763 346.610672,273.469393 347.691406,275.025391 C348.772141,276.581388 350.295563,277.359375 352.261719,277.359375 C355.139337,277.359375 357.177077,276.070325 358.375,273.492188 L358.375,263.667969 C357.828122,262.313795 357.04037,261.281905 356.011719,260.572266 C354.983068,259.862627 353.746101,259.507812 352.300781,259.507812 C350.334626,259.507812 348.804693,260.279289 347.710938,261.822266 C346.617182,263.365242 346.070312,265.64061 346.070312,268.648438 L346.070312,268.648438 Z M375.015625,279.390625 C373.218741,279.390625 371.594408,278.947921 370.142578,278.0625 C368.690748,277.177079 367.561202,275.943367 366.753906,274.361328 C365.946611,272.779289 365.542969,271.005218 365.542969,269.039062 L365.542969,268.199219 C365.542969,266.167959 365.936845,264.33855 366.724609,262.710938 C367.512374,261.083325 368.609368,259.804041 370.015625,258.873047 C371.421882,257.942053 372.945304,257.476562 374.585938,257.476562 C377.151054,257.476562 379.185539,258.352205 380.689453,260.103516 C382.193367,261.854826 382.945312,264.247381 382.945312,267.28125 L382.945312,268.589844 L367.867188,268.589844 L367.867188,269.039062 C367.867188,271.434908 368.55403,273.430331 369.927734,275.025391 C371.301439,276.620451 373.029937,277.417969 375.113281,277.417969 C376.363288,277.417969 377.466792,277.190106 378.423828,276.734375 C379.380864,276.278644 380.249996,275.549484 381.03125,274.546875 L382.496094,275.660156 C380.777335,278.147148 378.283871,279.390625 375.015625,279.390625 L375.015625,279.390625 Z M374.585938,259.46875 C372.828116,259.46875 371.347011,260.113275 370.142578,261.402344 C368.938145,262.691413 368.20573,264.423166 367.945312,266.597656 L380.621094,266.597656 L380.621094,266.34375 C380.555989,264.31249 379.976568,262.658861 378.882812,261.382812 C377.789057,260.106764 376.35678,259.46875 374.585938,259.46875 L374.585938,259.46875 Z" id="Phase-2:-Nudge" fill="#424242"></path>
        </g>
    </g>
</svg>